G75*
G70*
%OFA0B0*%
%FSLAX24Y24*%
%IPPOS*%
%LPD*%
%AMOC8*
5,1,8,0,0,1.08239X$1,22.5*
%
%ADD10C,0.0000*%
%ADD11C,0.0098*%
D10*
X000581Y001133D02*
X000583Y001183D01*
X000589Y001233D01*
X000599Y001282D01*
X000613Y001330D01*
X000630Y001377D01*
X000651Y001422D01*
X000676Y001466D01*
X000704Y001507D01*
X000736Y001546D01*
X000770Y001583D01*
X000807Y001617D01*
X000847Y001647D01*
X000889Y001674D01*
X000933Y001698D01*
X000979Y001719D01*
X001026Y001735D01*
X001074Y001748D01*
X001124Y001757D01*
X001173Y001762D01*
X001224Y001763D01*
X001274Y001760D01*
X001323Y001753D01*
X001372Y001742D01*
X001420Y001727D01*
X001466Y001709D01*
X001511Y001687D01*
X001554Y001661D01*
X001595Y001632D01*
X001634Y001600D01*
X001670Y001565D01*
X001702Y001527D01*
X001732Y001487D01*
X001759Y001444D01*
X001782Y001400D01*
X001801Y001354D01*
X001817Y001306D01*
X001829Y001257D01*
X001837Y001208D01*
X001841Y001158D01*
X001841Y001108D01*
X001837Y001058D01*
X001829Y001009D01*
X001817Y000960D01*
X001801Y000912D01*
X001782Y000866D01*
X001759Y000822D01*
X001732Y000779D01*
X001702Y000739D01*
X001670Y000701D01*
X001634Y000666D01*
X001595Y000634D01*
X001554Y000605D01*
X001511Y000579D01*
X001466Y000557D01*
X001420Y000539D01*
X001372Y000524D01*
X001323Y000513D01*
X001274Y000506D01*
X001224Y000503D01*
X001173Y000504D01*
X001124Y000509D01*
X001074Y000518D01*
X001026Y000531D01*
X000979Y000547D01*
X000933Y000568D01*
X000889Y000592D01*
X000847Y000619D01*
X000807Y000649D01*
X000770Y000683D01*
X000736Y000720D01*
X000704Y000759D01*
X000676Y000800D01*
X000651Y000844D01*
X000630Y000889D01*
X000613Y000936D01*
X000599Y000984D01*
X000589Y001033D01*
X000583Y001083D01*
X000581Y001133D01*
X000581Y012157D02*
X000583Y012207D01*
X000589Y012257D01*
X000599Y012306D01*
X000613Y012354D01*
X000630Y012401D01*
X000651Y012446D01*
X000676Y012490D01*
X000704Y012531D01*
X000736Y012570D01*
X000770Y012607D01*
X000807Y012641D01*
X000847Y012671D01*
X000889Y012698D01*
X000933Y012722D01*
X000979Y012743D01*
X001026Y012759D01*
X001074Y012772D01*
X001124Y012781D01*
X001173Y012786D01*
X001224Y012787D01*
X001274Y012784D01*
X001323Y012777D01*
X001372Y012766D01*
X001420Y012751D01*
X001466Y012733D01*
X001511Y012711D01*
X001554Y012685D01*
X001595Y012656D01*
X001634Y012624D01*
X001670Y012589D01*
X001702Y012551D01*
X001732Y012511D01*
X001759Y012468D01*
X001782Y012424D01*
X001801Y012378D01*
X001817Y012330D01*
X001829Y012281D01*
X001837Y012232D01*
X001841Y012182D01*
X001841Y012132D01*
X001837Y012082D01*
X001829Y012033D01*
X001817Y011984D01*
X001801Y011936D01*
X001782Y011890D01*
X001759Y011846D01*
X001732Y011803D01*
X001702Y011763D01*
X001670Y011725D01*
X001634Y011690D01*
X001595Y011658D01*
X001554Y011629D01*
X001511Y011603D01*
X001466Y011581D01*
X001420Y011563D01*
X001372Y011548D01*
X001323Y011537D01*
X001274Y011530D01*
X001224Y011527D01*
X001173Y011528D01*
X001124Y011533D01*
X001074Y011542D01*
X001026Y011555D01*
X000979Y011571D01*
X000933Y011592D01*
X000889Y011616D01*
X000847Y011643D01*
X000807Y011673D01*
X000770Y011707D01*
X000736Y011744D01*
X000704Y011783D01*
X000676Y011824D01*
X000651Y011868D01*
X000630Y011913D01*
X000613Y011960D01*
X000599Y012008D01*
X000589Y012057D01*
X000583Y012107D01*
X000581Y012157D01*
X011605Y012157D02*
X011607Y012207D01*
X011613Y012257D01*
X011623Y012306D01*
X011637Y012354D01*
X011654Y012401D01*
X011675Y012446D01*
X011700Y012490D01*
X011728Y012531D01*
X011760Y012570D01*
X011794Y012607D01*
X011831Y012641D01*
X011871Y012671D01*
X011913Y012698D01*
X011957Y012722D01*
X012003Y012743D01*
X012050Y012759D01*
X012098Y012772D01*
X012148Y012781D01*
X012197Y012786D01*
X012248Y012787D01*
X012298Y012784D01*
X012347Y012777D01*
X012396Y012766D01*
X012444Y012751D01*
X012490Y012733D01*
X012535Y012711D01*
X012578Y012685D01*
X012619Y012656D01*
X012658Y012624D01*
X012694Y012589D01*
X012726Y012551D01*
X012756Y012511D01*
X012783Y012468D01*
X012806Y012424D01*
X012825Y012378D01*
X012841Y012330D01*
X012853Y012281D01*
X012861Y012232D01*
X012865Y012182D01*
X012865Y012132D01*
X012861Y012082D01*
X012853Y012033D01*
X012841Y011984D01*
X012825Y011936D01*
X012806Y011890D01*
X012783Y011846D01*
X012756Y011803D01*
X012726Y011763D01*
X012694Y011725D01*
X012658Y011690D01*
X012619Y011658D01*
X012578Y011629D01*
X012535Y011603D01*
X012490Y011581D01*
X012444Y011563D01*
X012396Y011548D01*
X012347Y011537D01*
X012298Y011530D01*
X012248Y011527D01*
X012197Y011528D01*
X012148Y011533D01*
X012098Y011542D01*
X012050Y011555D01*
X012003Y011571D01*
X011957Y011592D01*
X011913Y011616D01*
X011871Y011643D01*
X011831Y011673D01*
X011794Y011707D01*
X011760Y011744D01*
X011728Y011783D01*
X011700Y011824D01*
X011675Y011868D01*
X011654Y011913D01*
X011637Y011960D01*
X011623Y012008D01*
X011613Y012057D01*
X011607Y012107D01*
X011605Y012157D01*
X011605Y001133D02*
X011607Y001183D01*
X011613Y001233D01*
X011623Y001282D01*
X011637Y001330D01*
X011654Y001377D01*
X011675Y001422D01*
X011700Y001466D01*
X011728Y001507D01*
X011760Y001546D01*
X011794Y001583D01*
X011831Y001617D01*
X011871Y001647D01*
X011913Y001674D01*
X011957Y001698D01*
X012003Y001719D01*
X012050Y001735D01*
X012098Y001748D01*
X012148Y001757D01*
X012197Y001762D01*
X012248Y001763D01*
X012298Y001760D01*
X012347Y001753D01*
X012396Y001742D01*
X012444Y001727D01*
X012490Y001709D01*
X012535Y001687D01*
X012578Y001661D01*
X012619Y001632D01*
X012658Y001600D01*
X012694Y001565D01*
X012726Y001527D01*
X012756Y001487D01*
X012783Y001444D01*
X012806Y001400D01*
X012825Y001354D01*
X012841Y001306D01*
X012853Y001257D01*
X012861Y001208D01*
X012865Y001158D01*
X012865Y001108D01*
X012861Y001058D01*
X012853Y001009D01*
X012841Y000960D01*
X012825Y000912D01*
X012806Y000866D01*
X012783Y000822D01*
X012756Y000779D01*
X012726Y000739D01*
X012694Y000701D01*
X012658Y000666D01*
X012619Y000634D01*
X012578Y000605D01*
X012535Y000579D01*
X012490Y000557D01*
X012444Y000539D01*
X012396Y000524D01*
X012347Y000513D01*
X012298Y000506D01*
X012248Y000503D01*
X012197Y000504D01*
X012148Y000509D01*
X012098Y000518D01*
X012050Y000531D01*
X012003Y000547D01*
X011957Y000568D01*
X011913Y000592D01*
X011871Y000619D01*
X011831Y000649D01*
X011794Y000683D01*
X011760Y000720D01*
X011728Y000759D01*
X011700Y000800D01*
X011675Y000844D01*
X011654Y000889D01*
X011637Y000936D01*
X011623Y000984D01*
X011613Y001033D01*
X011607Y001083D01*
X011605Y001133D01*
D11*
X000227Y000149D02*
X000227Y013141D01*
X013219Y013141D01*
X013219Y000149D01*
X000227Y000149D01*
M02*
