%
M48
M72
T01C0.0236
T02C0.0350
T03C0.1260
%
T01
X2668Y3295
X2195Y5228
X4085Y5504
X6329Y4756
X6447Y2354
X8888Y3259
X8888Y6236
X8888Y7236
X7786Y9362
X6408Y10149
X6408Y10917
X4046Y11724
X3416Y11842
X2884Y10996
X1644Y9441
X2550Y9047
X3416Y9047
X2786Y7866
X12038Y9677
T02
X12227Y5618
X12227Y4618
X12227Y3618
X12227Y2618
X10707Y1141
X9707Y1141
X8707Y1141
X7707Y1141
X4758Y1133
X3758Y1133
T03
X1211Y1133
X12235Y1133
X12235Y12157
X1211Y12157
M30
