%
M48
M72
T01C0.0160
T02C0.0236
T03C0.0315
T04C0.0350
T05C0.1260
%
T01
X3794Y2572
X4259Y2552
X4601Y2300
X5019Y2304
X5432Y2347
X5802Y2580
X3786Y4316
X3904Y5985
X9561Y4285
X9561Y3882
X9964Y3882
X9964Y4285
T02
X10515Y6115
X11046Y6131
X8952Y6288
X7145Y8595
X6145Y8595
X4652Y9072
X2495Y9076
X2046Y10269
X1948Y11418
X3723Y11044
X4471Y11745
X5282Y11887
X7353Y11103
X11231Y8930
X11861Y10509
X4318Y5276
X1995Y3910
X2408Y2946
X4546Y1272
X5310Y1276
X6810Y2587
X12113Y3194
X2920Y13091
T03
X7239Y12627
X8239Y12627
X9239Y12627
X10239Y12627
X10239Y9627
X9239Y9627
X8239Y9627
X7239Y9627
T04
X1129Y10127
X1129Y11127
X1129Y9127
X1129Y8127
X1129Y6950
X1129Y5950
X1129Y4950
X1129Y3950
X9574Y1615
X10574Y1615
X14101Y3804
X14101Y4804
X14101Y5804
X14101Y6804
X14101Y7804
X14101Y8804
X14101Y9804
X14101Y10804
T05
X1164Y1650
X12188Y1650
X12188Y12674
X1164Y12674
M30
