G75*
G70*
%OFA0B0*%
%FSLAX24Y24*%
%IPPOS*%
%LPD*%
%AMOC8*
5,1,8,0,0,1.08239X$1,22.5*
%
%ADD10R,0.2205X0.0827*%
%ADD11C,0.0396*%
%ADD12C,0.0526*%
%ADD13C,0.0320*%
%ADD14R,0.0669X0.1417*%
%ADD15R,0.0475X0.0475*%
%ADD16C,0.0475*%
%ADD17R,0.0396X0.0396*%
%ADD18C,0.0240*%
%ADD19OC8,0.0396*%
%ADD20C,0.0100*%
%ADD21C,0.0160*%
D10*
X003184Y001891D03*
X006924Y001891D03*
D11*
X005310Y001276D03*
X004546Y001272D03*
X008952Y006288D03*
X007145Y008595D03*
X006145Y008595D03*
X002046Y010269D03*
D12*
X001129Y010127D03*
X001129Y011127D03*
X001129Y009127D03*
X001129Y008127D03*
X001129Y006950D03*
X001129Y005950D03*
X001129Y004950D03*
X001129Y003950D03*
X009574Y001615D03*
X010574Y001615D03*
X014101Y003804D03*
X014101Y004804D03*
X014101Y005804D03*
X014101Y006804D03*
X014101Y007804D03*
X014101Y008804D03*
X014101Y009804D03*
X014101Y010804D03*
D13*
X009964Y004285D03*
X009561Y004285D03*
X009561Y003882D03*
X009964Y003882D03*
X005802Y002580D03*
X005432Y002347D03*
X005019Y002304D03*
X004601Y002300D03*
X004259Y002552D03*
X003794Y002572D03*
X003786Y004316D03*
X003904Y005985D03*
D14*
X005326Y005261D03*
X008869Y005261D03*
D15*
X007239Y009627D03*
D16*
X008239Y009627D03*
X009239Y009627D03*
X010239Y009627D03*
X010239Y012627D03*
X009239Y012627D03*
X008239Y012627D03*
X007239Y012627D03*
D17*
X007353Y011103D03*
X005282Y011887D03*
X003723Y011044D03*
X004652Y009072D03*
X002495Y009076D03*
X001995Y003910D03*
X011046Y006131D03*
X011231Y008930D03*
D18*
X011046Y006131D02*
X011046Y002087D01*
X010574Y001615D01*
D19*
X012113Y003194D03*
X010515Y006115D03*
X006810Y002587D03*
X004318Y005276D03*
X002408Y002946D03*
X011861Y010509D03*
X004471Y011745D03*
X002920Y013091D03*
X001948Y011418D03*
D20*
X000510Y012084D02*
X000510Y002241D01*
X000666Y002396D01*
X000989Y002530D01*
X001135Y002530D01*
X001377Y002772D01*
X001377Y003656D01*
X001346Y003625D01*
X001205Y003567D01*
X001053Y003567D01*
X000912Y003625D01*
X000804Y003733D01*
X000746Y003873D01*
X000746Y004026D01*
X000804Y004166D01*
X000912Y004274D01*
X001053Y004332D01*
X001205Y004332D01*
X001346Y004274D01*
X001377Y004243D01*
X001377Y004656D01*
X001346Y004625D01*
X001205Y004567D01*
X001053Y004567D01*
X000912Y004625D01*
X000804Y004733D01*
X000746Y004873D01*
X000746Y005026D01*
X000804Y005166D01*
X000912Y005274D01*
X001053Y005332D01*
X001205Y005332D01*
X001346Y005274D01*
X001377Y005243D01*
X001377Y005656D01*
X001346Y005625D01*
X001205Y005567D01*
X001053Y005567D01*
X000912Y005625D01*
X000804Y005733D01*
X000746Y005873D01*
X000746Y006026D01*
X000804Y006166D01*
X000912Y006274D01*
X001053Y006332D01*
X001205Y006332D01*
X001346Y006274D01*
X001377Y006243D01*
X001377Y008833D01*
X001346Y008802D01*
X001205Y008744D01*
X001053Y008744D01*
X000912Y008802D01*
X000804Y008910D01*
X000746Y009051D01*
X000746Y009203D01*
X000804Y009344D01*
X000912Y009451D01*
X001053Y009510D01*
X001205Y009510D01*
X001346Y009451D01*
X001377Y009420D01*
X001377Y009833D01*
X001346Y009802D01*
X001205Y009744D01*
X001053Y009744D01*
X000912Y009802D01*
X000804Y009910D01*
X000746Y010051D01*
X000746Y010203D01*
X000804Y010344D01*
X000912Y010451D01*
X001053Y010510D01*
X001205Y010510D01*
X001346Y010451D01*
X001377Y010420D01*
X001377Y010552D01*
X001704Y010879D01*
X002082Y010879D01*
X002995Y011792D01*
X004050Y011792D01*
X004117Y011725D01*
X004117Y011564D01*
X004546Y011135D01*
X004778Y011367D01*
X004778Y012257D01*
X005125Y012603D01*
X005715Y012603D01*
X006101Y012217D01*
X007538Y012217D01*
X008069Y011687D01*
X008069Y012310D01*
X008037Y012324D01*
X007936Y012424D01*
X007882Y012556D01*
X007882Y012698D01*
X007936Y012829D01*
X008037Y012930D01*
X008168Y012984D01*
X008310Y012984D01*
X008442Y012930D01*
X008542Y012829D01*
X008597Y012698D01*
X008597Y012556D01*
X008542Y012424D01*
X008442Y012324D01*
X008409Y012310D01*
X008409Y010604D01*
X007935Y010130D01*
X007302Y010130D01*
X007156Y009984D01*
X007526Y009984D01*
X007597Y009914D01*
X007597Y009340D01*
X007526Y009269D01*
X007035Y009269D01*
X007035Y008718D01*
X004178Y005860D01*
X004170Y005835D01*
X004130Y005812D01*
X004097Y005780D01*
X004095Y005780D01*
X004063Y005748D01*
X003960Y005705D01*
X003849Y005705D01*
X003746Y005748D01*
X003667Y005826D01*
X003624Y005929D01*
X003624Y006041D01*
X003667Y006144D01*
X003746Y006222D01*
X003849Y006265D01*
X003960Y006265D01*
X004060Y006224D01*
X006114Y008277D01*
X006081Y008277D01*
X005964Y008326D01*
X005875Y008415D01*
X005872Y008423D01*
X005440Y008418D01*
X004999Y007977D01*
X004562Y007977D01*
X003597Y007013D01*
X003597Y005835D01*
X003912Y005520D01*
X003912Y004926D01*
X003906Y004919D01*
X004701Y004919D01*
X004871Y005089D01*
X004871Y006019D01*
X004941Y006089D01*
X005710Y006089D01*
X005780Y006019D01*
X005780Y006001D01*
X008027Y008260D01*
X008027Y008261D01*
X008086Y008319D01*
X008144Y008378D01*
X008144Y008378D01*
X008144Y008378D01*
X008227Y008378D01*
X008310Y008378D01*
X008310Y008378D01*
X008732Y008378D01*
X009441Y009072D01*
X009499Y009130D01*
X009500Y009130D01*
X009501Y009131D01*
X009583Y009130D01*
X010913Y009130D01*
X010913Y009178D01*
X010983Y009248D01*
X011479Y009248D01*
X011549Y009178D01*
X011549Y008682D01*
X011479Y008612D01*
X010983Y008612D01*
X010913Y008682D01*
X010913Y008730D01*
X009663Y008730D01*
X009062Y008142D01*
X012123Y008151D01*
X013735Y009689D01*
X013718Y009728D01*
X010584Y009728D01*
X010597Y009698D02*
X010542Y009829D01*
X010442Y009930D01*
X010310Y009984D01*
X010168Y009984D01*
X010037Y009930D01*
X009936Y009829D01*
X009882Y009698D01*
X009882Y009556D01*
X009936Y009424D01*
X010037Y009324D01*
X010168Y009269D01*
X010310Y009269D01*
X010442Y009324D01*
X010542Y009424D01*
X010597Y009556D01*
X010597Y009698D01*
X010597Y009630D02*
X013673Y009630D01*
X013718Y009728D02*
X013718Y009880D01*
X013777Y010021D01*
X013884Y010128D01*
X014025Y010187D01*
X014177Y010187D01*
X014318Y010128D01*
X014426Y010021D01*
X014484Y009880D01*
X014484Y009728D01*
X014811Y009728D01*
X014811Y009630D02*
X014443Y009630D01*
X014426Y009587D02*
X014484Y009728D01*
X014484Y009827D02*
X014811Y009827D01*
X014811Y009925D02*
X014465Y009925D01*
X014423Y010024D02*
X014811Y010024D01*
X014811Y010122D02*
X014324Y010122D01*
X014177Y010421D02*
X014318Y010479D01*
X014426Y010587D01*
X014484Y010728D01*
X014484Y010880D01*
X014426Y011021D01*
X014318Y011128D01*
X014177Y011187D01*
X014025Y011187D01*
X013884Y011128D01*
X013777Y011021D01*
X013718Y010880D01*
X013718Y010728D01*
X013777Y010587D01*
X013884Y010479D01*
X014025Y010421D01*
X014177Y010421D01*
X014355Y010516D02*
X014811Y010516D01*
X014811Y010418D02*
X008223Y010418D01*
X008322Y010516D02*
X013848Y010516D01*
X013765Y010615D02*
X008409Y010615D01*
X008409Y010713D02*
X013725Y010713D01*
X013718Y010812D02*
X008409Y010812D01*
X008409Y010910D02*
X013731Y010910D01*
X013772Y011009D02*
X008409Y011009D01*
X008409Y011107D02*
X013863Y011107D01*
X014339Y011107D02*
X014811Y011107D01*
X014811Y011009D02*
X014431Y011009D01*
X014472Y010910D02*
X014811Y010910D01*
X014811Y010812D02*
X014484Y010812D01*
X014478Y010713D02*
X014811Y010713D01*
X014811Y010615D02*
X014437Y010615D01*
X014811Y010319D02*
X008125Y010319D01*
X008026Y010221D02*
X014811Y010221D01*
X014811Y009531D02*
X014370Y009531D01*
X014318Y009479D02*
X014426Y009587D01*
X014318Y009479D02*
X014177Y009421D01*
X014025Y009421D01*
X013970Y009444D01*
X012374Y007920D01*
X012942Y007919D01*
X013736Y008687D01*
X013718Y008728D01*
X013718Y008880D01*
X013777Y009021D01*
X013884Y009128D01*
X014025Y009187D01*
X014177Y009187D01*
X014318Y009128D01*
X014426Y009021D01*
X014484Y008880D01*
X014484Y008728D01*
X014426Y008587D01*
X014318Y008479D01*
X014177Y008421D01*
X014025Y008421D01*
X013973Y008443D01*
X013244Y007738D01*
X013718Y007738D01*
X013718Y007880D01*
X013777Y008021D01*
X013884Y008128D01*
X014025Y008187D01*
X014177Y008187D01*
X014318Y008128D01*
X014426Y008021D01*
X014484Y007880D01*
X014484Y007728D01*
X014426Y007587D01*
X014318Y007479D01*
X014177Y007421D01*
X014025Y007421D01*
X013978Y007441D01*
X013935Y007398D01*
X011815Y007398D01*
X012361Y006852D01*
X013718Y006852D01*
X013718Y006880D01*
X013777Y007021D01*
X013884Y007128D01*
X014025Y007187D01*
X014177Y007187D01*
X014318Y007128D01*
X014426Y007021D01*
X014484Y006880D01*
X014484Y006728D01*
X014426Y006587D01*
X014318Y006479D01*
X014177Y006421D01*
X014025Y006421D01*
X013884Y006479D01*
X013852Y006512D01*
X012295Y006512D01*
X013022Y005785D01*
X013718Y005785D01*
X013718Y005880D01*
X013777Y006021D01*
X013884Y006128D01*
X014025Y006187D01*
X014177Y006187D01*
X014318Y006128D01*
X014426Y006021D01*
X014484Y005880D01*
X014484Y005728D01*
X014426Y005587D01*
X014318Y005479D01*
X014177Y005421D01*
X014025Y005421D01*
X013968Y005445D01*
X013063Y005445D01*
X013534Y004974D01*
X013757Y004974D01*
X013777Y005021D01*
X013884Y005128D01*
X014025Y005187D01*
X014177Y005187D01*
X014318Y005128D01*
X014426Y005021D01*
X014484Y004880D01*
X014484Y004728D01*
X014426Y004587D01*
X014318Y004479D01*
X014177Y004421D01*
X014025Y004421D01*
X013884Y004479D01*
X013777Y004587D01*
X013757Y004634D01*
X013512Y004634D01*
X013978Y004167D01*
X014025Y004187D01*
X014177Y004187D01*
X014318Y004128D01*
X014426Y004021D01*
X014484Y003880D01*
X014484Y003728D01*
X014426Y003587D01*
X014318Y003479D01*
X014177Y003421D01*
X014025Y003421D01*
X013884Y003479D01*
X013777Y003587D01*
X013718Y003728D01*
X013718Y003880D01*
X013738Y003927D01*
X011364Y006301D01*
X011364Y005883D01*
X011294Y005813D01*
X011286Y005813D01*
X011286Y002040D01*
X011250Y001951D01*
X010956Y001658D01*
X010956Y001539D01*
X010898Y001398D01*
X010791Y001290D01*
X010650Y001232D01*
X010498Y001232D01*
X010357Y001290D01*
X010249Y001398D01*
X010191Y001539D01*
X010191Y001691D01*
X010249Y001832D01*
X010357Y001939D01*
X010498Y001998D01*
X010617Y001998D01*
X010806Y002187D01*
X010806Y005813D01*
X010798Y005813D01*
X010728Y005883D01*
X010728Y006379D01*
X010798Y006449D01*
X011216Y006449D01*
X011204Y006461D01*
X009225Y006461D01*
X009270Y006351D01*
X009270Y006225D01*
X009221Y006108D01*
X009203Y006089D01*
X009253Y006089D01*
X009324Y006019D01*
X009324Y004502D01*
X009253Y004432D01*
X008485Y004432D01*
X008414Y004502D01*
X008414Y006019D01*
X008485Y006089D01*
X008699Y006089D01*
X008699Y006091D01*
X008682Y006108D01*
X008634Y006225D01*
X008634Y006265D01*
X008334Y005966D01*
X008334Y003037D01*
X008228Y002930D01*
X008228Y002930D01*
X008128Y002831D01*
X006554Y002831D01*
X006232Y002509D01*
X006147Y002424D01*
X008076Y002424D01*
X008146Y002354D01*
X008146Y001427D01*
X008076Y001357D01*
X005772Y001357D01*
X005702Y001427D01*
X005702Y001428D01*
X005624Y001350D01*
X005628Y001340D01*
X005628Y001213D01*
X005580Y001096D01*
X005490Y001007D01*
X005465Y000996D01*
X011598Y000996D01*
X011442Y001152D01*
X011308Y001475D01*
X011308Y001825D01*
X011442Y002149D01*
X011689Y002396D01*
X012013Y002530D01*
X012363Y002530D01*
X012686Y002396D01*
X012934Y002149D01*
X013068Y001825D01*
X013068Y001475D01*
X012934Y001152D01*
X012778Y000996D01*
X013565Y000996D01*
X014811Y002242D01*
X012841Y002242D01*
X012936Y002144D02*
X014713Y002144D01*
X014811Y002242D02*
X014811Y012272D01*
X013754Y013328D01*
X012778Y013328D01*
X012934Y013172D01*
X013068Y012849D01*
X013068Y012499D01*
X012934Y012176D01*
X012686Y011928D01*
X012363Y011794D01*
X012013Y011794D01*
X011689Y011928D01*
X011442Y012176D01*
X011308Y012499D01*
X011308Y012849D01*
X011442Y013172D01*
X011598Y013328D01*
X001754Y013328D01*
X001910Y013172D01*
X002044Y012849D01*
X002044Y012499D01*
X001910Y012176D01*
X001663Y011928D01*
X001339Y011794D01*
X000989Y011794D01*
X000666Y011928D01*
X000510Y012084D01*
X000510Y011994D02*
X000600Y011994D01*
X000510Y011895D02*
X000745Y011895D01*
X000510Y011797D02*
X000983Y011797D01*
X001053Y011510D02*
X000912Y011451D01*
X000804Y011344D01*
X000746Y011203D01*
X000746Y011051D01*
X000804Y010910D01*
X000510Y010910D01*
X000510Y010812D02*
X000903Y010812D01*
X000912Y010802D02*
X001053Y010744D01*
X001205Y010744D01*
X001346Y010802D01*
X001453Y010910D01*
X001512Y011051D01*
X001512Y011203D01*
X001453Y011344D01*
X001346Y011451D01*
X001205Y011510D01*
X001053Y011510D01*
X001032Y011501D02*
X000510Y011501D01*
X000510Y011403D02*
X000863Y011403D01*
X000788Y011304D02*
X000510Y011304D01*
X000510Y011206D02*
X000747Y011206D01*
X000746Y011107D02*
X000510Y011107D01*
X000510Y011009D02*
X000763Y011009D01*
X000804Y010910D02*
X000912Y010802D01*
X000878Y010418D02*
X000510Y010418D01*
X000510Y010516D02*
X001377Y010516D01*
X001440Y010615D02*
X000510Y010615D01*
X000510Y010713D02*
X001538Y010713D01*
X001637Y010812D02*
X001355Y010812D01*
X001453Y010910D02*
X002113Y010910D01*
X002212Y011009D02*
X001494Y011009D01*
X001512Y011107D02*
X002310Y011107D01*
X002409Y011206D02*
X001510Y011206D01*
X001470Y011304D02*
X002507Y011304D01*
X002606Y011403D02*
X001394Y011403D01*
X001225Y011501D02*
X002704Y011501D01*
X002803Y011600D02*
X000510Y011600D01*
X000510Y011698D02*
X002901Y011698D01*
X003224Y011304D02*
X004121Y011304D01*
X004121Y011324D02*
X004121Y010910D01*
X002830Y010910D01*
X002928Y011009D02*
X004121Y011009D01*
X004121Y011107D02*
X003027Y011107D01*
X003125Y011206D02*
X004121Y011206D01*
X004121Y011324D02*
X003999Y011446D01*
X003365Y011446D01*
X002582Y010662D01*
X001924Y010662D01*
X001593Y010331D01*
X001593Y003528D01*
X001680Y003442D01*
X002180Y003442D01*
X003448Y004709D01*
X003448Y007430D01*
X004208Y008190D01*
X004956Y008190D01*
X005182Y008416D01*
X003814Y008402D01*
X003813Y008402D01*
X003744Y008402D01*
X003674Y008401D01*
X003674Y008402D01*
X003673Y008402D01*
X003623Y008451D01*
X003574Y008500D01*
X003574Y008501D01*
X002120Y009955D01*
X002109Y009950D01*
X001983Y009950D01*
X001866Y009999D01*
X001776Y010088D01*
X001728Y010205D01*
X001728Y010332D01*
X001776Y010449D01*
X001866Y010538D01*
X001983Y010587D01*
X002109Y010587D01*
X002226Y010538D01*
X002316Y010449D01*
X002364Y010332D01*
X002364Y010205D01*
X002360Y010195D01*
X003813Y008742D01*
X005525Y008759D01*
X005649Y008883D01*
X005649Y009761D01*
X006550Y010662D01*
X007834Y010662D01*
X007857Y010686D01*
X007857Y011139D01*
X007853Y011139D01*
X007853Y011135D01*
X007751Y011237D01*
X007751Y011544D01*
X007400Y011894D01*
X005865Y011894D01*
X005526Y012233D01*
X005030Y012233D01*
X004936Y012139D01*
X004936Y010898D01*
X004719Y010682D01*
X004349Y010682D01*
X004121Y010910D01*
X004220Y010812D02*
X002731Y010812D01*
X002633Y010713D02*
X004318Y010713D01*
X004751Y010713D02*
X007857Y010713D01*
X007857Y010812D02*
X004849Y010812D01*
X004936Y010910D02*
X007857Y010910D01*
X007857Y011009D02*
X004936Y011009D01*
X004936Y011107D02*
X007857Y011107D01*
X007782Y011206D02*
X004936Y011206D01*
X004936Y011304D02*
X007751Y011304D01*
X007751Y011403D02*
X004936Y011403D01*
X004936Y011501D02*
X007751Y011501D01*
X007695Y011600D02*
X004936Y011600D01*
X004936Y011698D02*
X007597Y011698D01*
X007498Y011797D02*
X004936Y011797D01*
X004936Y011895D02*
X005864Y011895D01*
X005766Y011994D02*
X004936Y011994D01*
X004936Y012092D02*
X005667Y012092D01*
X005569Y012191D02*
X004988Y012191D01*
X004811Y012289D02*
X001957Y012289D01*
X001916Y012191D02*
X004778Y012191D01*
X004778Y012092D02*
X001827Y012092D01*
X001728Y011994D02*
X004778Y011994D01*
X004778Y011895D02*
X001583Y011895D01*
X001345Y011797D02*
X004778Y011797D01*
X004778Y011698D02*
X004117Y011698D01*
X004117Y011600D02*
X004778Y011600D01*
X004778Y011501D02*
X004180Y011501D01*
X004278Y011403D02*
X004778Y011403D01*
X004716Y011304D02*
X004377Y011304D01*
X004475Y011206D02*
X004617Y011206D01*
X004042Y011403D02*
X003322Y011403D01*
X002248Y010516D02*
X006404Y010516D01*
X006306Y010418D02*
X002329Y010418D01*
X002364Y010319D02*
X006207Y010319D01*
X006109Y010221D02*
X002364Y010221D01*
X002433Y010122D02*
X006010Y010122D01*
X005912Y010024D02*
X002531Y010024D01*
X002630Y009925D02*
X005813Y009925D01*
X005715Y009827D02*
X002728Y009827D01*
X002827Y009728D02*
X005649Y009728D01*
X005649Y009630D02*
X002925Y009630D01*
X003024Y009531D02*
X005649Y009531D01*
X005649Y009433D02*
X003122Y009433D01*
X003221Y009334D02*
X005649Y009334D01*
X005649Y009236D02*
X003319Y009236D01*
X003418Y009137D02*
X005649Y009137D01*
X005649Y009039D02*
X003516Y009039D01*
X003615Y008940D02*
X005649Y008940D01*
X005607Y008842D02*
X003713Y008842D01*
X003812Y008743D02*
X003896Y008743D01*
X003743Y008572D02*
X002046Y010269D01*
X001764Y010418D02*
X001680Y010418D01*
X001728Y010319D02*
X001593Y010319D01*
X001593Y010221D02*
X001728Y010221D01*
X001762Y010122D02*
X001593Y010122D01*
X001593Y010024D02*
X001841Y010024D01*
X001593Y009925D02*
X002149Y009925D01*
X002248Y009827D02*
X001593Y009827D01*
X001593Y009728D02*
X002346Y009728D01*
X002445Y009630D02*
X001593Y009630D01*
X001593Y009531D02*
X002543Y009531D01*
X002642Y009433D02*
X001593Y009433D01*
X001593Y009334D02*
X002740Y009334D01*
X002839Y009236D02*
X001593Y009236D01*
X001593Y009137D02*
X002937Y009137D01*
X003036Y009039D02*
X001593Y009039D01*
X001593Y008940D02*
X003134Y008940D01*
X003233Y008842D02*
X001593Y008842D01*
X001593Y008743D02*
X003331Y008743D01*
X003430Y008645D02*
X001593Y008645D01*
X001593Y008546D02*
X003528Y008546D01*
X003627Y008448D02*
X001593Y008448D01*
X001593Y008349D02*
X005115Y008349D01*
X005016Y008251D02*
X001593Y008251D01*
X001593Y008152D02*
X004170Y008152D01*
X004071Y008054D02*
X001593Y008054D01*
X001593Y007955D02*
X003973Y007955D01*
X003874Y007857D02*
X001593Y007857D01*
X001593Y007758D02*
X003776Y007758D01*
X003677Y007660D02*
X001593Y007660D01*
X001593Y007561D02*
X003579Y007561D01*
X003480Y007463D02*
X001593Y007463D01*
X001593Y007364D02*
X003448Y007364D01*
X003448Y007266D02*
X001593Y007266D01*
X001593Y007167D02*
X003448Y007167D01*
X003448Y007069D02*
X001593Y007069D01*
X001593Y006970D02*
X003448Y006970D01*
X003448Y006872D02*
X001593Y006872D01*
X001593Y006773D02*
X003448Y006773D01*
X003448Y006675D02*
X001593Y006675D01*
X001593Y006576D02*
X003448Y006576D01*
X003448Y006478D02*
X001593Y006478D01*
X001593Y006379D02*
X003448Y006379D01*
X003448Y006281D02*
X001593Y006281D01*
X001593Y006182D02*
X003448Y006182D01*
X003448Y006084D02*
X001593Y006084D01*
X001593Y005985D02*
X003448Y005985D01*
X003448Y005887D02*
X001593Y005887D01*
X001593Y005788D02*
X003448Y005788D01*
X003448Y005690D02*
X001593Y005690D01*
X001593Y005591D02*
X003448Y005591D01*
X003448Y005493D02*
X001593Y005493D01*
X001593Y005394D02*
X003448Y005394D01*
X003448Y005296D02*
X001593Y005296D01*
X001593Y005197D02*
X003448Y005197D01*
X003448Y005099D02*
X001593Y005099D01*
X001593Y005000D02*
X003448Y005000D01*
X003448Y004902D02*
X001593Y004902D01*
X001593Y004803D02*
X003448Y004803D01*
X003443Y004705D02*
X001593Y004705D01*
X001593Y004606D02*
X003344Y004606D01*
X003246Y004508D02*
X001593Y004508D01*
X001593Y004409D02*
X003147Y004409D01*
X003049Y004311D02*
X001593Y004311D01*
X001593Y004212D02*
X002950Y004212D01*
X002852Y004114D02*
X001593Y004114D01*
X001593Y004015D02*
X002753Y004015D01*
X002655Y003917D02*
X001593Y003917D01*
X001593Y003818D02*
X002556Y003818D01*
X002458Y003720D02*
X001593Y003720D01*
X001593Y003621D02*
X002359Y003621D01*
X002261Y003523D02*
X001599Y003523D01*
X001377Y003523D02*
X000510Y003523D01*
X000510Y003621D02*
X000921Y003621D01*
X000817Y003720D02*
X000510Y003720D01*
X000510Y003818D02*
X000769Y003818D01*
X000746Y003917D02*
X000510Y003917D01*
X000510Y004015D02*
X000746Y004015D01*
X000782Y004114D02*
X000510Y004114D01*
X000510Y004212D02*
X000850Y004212D01*
X001000Y004311D02*
X000510Y004311D01*
X000510Y004409D02*
X001377Y004409D01*
X001377Y004311D02*
X001257Y004311D01*
X001377Y004508D02*
X000510Y004508D01*
X000510Y004606D02*
X000958Y004606D01*
X000832Y004705D02*
X000510Y004705D01*
X000510Y004803D02*
X000775Y004803D01*
X000746Y004902D02*
X000510Y004902D01*
X000510Y005000D02*
X000746Y005000D01*
X000776Y005099D02*
X000510Y005099D01*
X000510Y005197D02*
X000835Y005197D01*
X000964Y005296D02*
X000510Y005296D01*
X000510Y005394D02*
X001377Y005394D01*
X001377Y005296D02*
X001294Y005296D01*
X001377Y005493D02*
X000510Y005493D01*
X000510Y005591D02*
X000994Y005591D01*
X000847Y005690D02*
X000510Y005690D01*
X000510Y005788D02*
X000781Y005788D01*
X000746Y005887D02*
X000510Y005887D01*
X000510Y005985D02*
X000746Y005985D01*
X000770Y006084D02*
X000510Y006084D01*
X000510Y006182D02*
X000820Y006182D01*
X000928Y006281D02*
X000510Y006281D01*
X000510Y006379D02*
X001377Y006379D01*
X001377Y006281D02*
X001330Y006281D01*
X001377Y006478D02*
X000510Y006478D01*
X000510Y006576D02*
X001377Y006576D01*
X001377Y006675D02*
X000510Y006675D01*
X000510Y006773D02*
X001377Y006773D01*
X001377Y006872D02*
X000510Y006872D01*
X000510Y006970D02*
X001377Y006970D01*
X001377Y007069D02*
X000510Y007069D01*
X000510Y007167D02*
X001377Y007167D01*
X001377Y007266D02*
X000510Y007266D01*
X000510Y007364D02*
X001377Y007364D01*
X001377Y007463D02*
X000510Y007463D01*
X000510Y007561D02*
X001377Y007561D01*
X001377Y007660D02*
X000510Y007660D01*
X000510Y007758D02*
X001377Y007758D01*
X001377Y007857D02*
X000510Y007857D01*
X000510Y007955D02*
X001377Y007955D01*
X001377Y008054D02*
X000510Y008054D01*
X000510Y008152D02*
X001377Y008152D01*
X001377Y008251D02*
X000510Y008251D01*
X000510Y008349D02*
X001377Y008349D01*
X001377Y008448D02*
X000510Y008448D01*
X000510Y008546D02*
X001377Y008546D01*
X001377Y008645D02*
X000510Y008645D01*
X000510Y008743D02*
X001377Y008743D01*
X000873Y008842D02*
X000510Y008842D01*
X000510Y008940D02*
X000792Y008940D01*
X000751Y009039D02*
X000510Y009039D01*
X000510Y009137D02*
X000746Y009137D01*
X000760Y009236D02*
X000510Y009236D01*
X000510Y009334D02*
X000800Y009334D01*
X000893Y009433D02*
X000510Y009433D01*
X000510Y009531D02*
X001377Y009531D01*
X001364Y009433D02*
X001377Y009433D01*
X001377Y009630D02*
X000510Y009630D01*
X000510Y009728D02*
X001377Y009728D01*
X001370Y009827D02*
X001377Y009827D01*
X000888Y009827D02*
X000510Y009827D01*
X000510Y009925D02*
X000798Y009925D01*
X000757Y010024D02*
X000510Y010024D01*
X000510Y010122D02*
X000746Y010122D01*
X000753Y010221D02*
X000510Y010221D01*
X000510Y010319D02*
X000794Y010319D01*
X001778Y010516D02*
X001844Y010516D01*
X001877Y010615D02*
X006503Y010615D01*
X006865Y009934D02*
X007231Y010300D01*
X007865Y010300D01*
X008239Y010674D01*
X008239Y012627D01*
X007987Y012880D02*
X007491Y012880D01*
X007442Y012930D02*
X007310Y012984D01*
X007168Y012984D01*
X007037Y012930D01*
X006936Y012829D01*
X006882Y012698D01*
X006882Y012556D01*
X006936Y012424D01*
X007037Y012324D01*
X007168Y012269D01*
X007310Y012269D01*
X007442Y012324D01*
X007542Y012424D01*
X007597Y012556D01*
X007597Y012698D01*
X007542Y012829D01*
X007442Y012930D01*
X007324Y012979D02*
X008154Y012979D01*
X008324Y012979D02*
X009154Y012979D01*
X009168Y012984D02*
X009037Y012930D01*
X008936Y012829D01*
X008882Y012698D01*
X008882Y012556D01*
X008936Y012424D01*
X009037Y012324D01*
X009168Y012269D01*
X009310Y012269D01*
X009442Y012324D01*
X009542Y012424D01*
X009597Y012556D01*
X009597Y012698D01*
X009542Y012829D01*
X009442Y012930D01*
X009310Y012984D01*
X009168Y012984D01*
X009324Y012979D02*
X010154Y012979D01*
X010168Y012984D02*
X010037Y012930D01*
X009936Y012829D01*
X009882Y012698D01*
X009882Y012556D01*
X009936Y012424D01*
X010037Y012324D01*
X010168Y012269D01*
X010310Y012269D01*
X010442Y012324D01*
X010542Y012424D01*
X010597Y012556D01*
X010597Y012698D01*
X010542Y012829D01*
X010442Y012930D01*
X010310Y012984D01*
X010168Y012984D01*
X010324Y012979D02*
X011362Y012979D01*
X011402Y013077D02*
X001950Y013077D01*
X001990Y012979D02*
X007154Y012979D01*
X006987Y012880D02*
X002031Y012880D01*
X002044Y012782D02*
X006916Y012782D01*
X006882Y012683D02*
X002044Y012683D01*
X002044Y012585D02*
X005106Y012585D01*
X005008Y012486D02*
X002039Y012486D01*
X001998Y012388D02*
X004909Y012388D01*
X005734Y012585D02*
X006882Y012585D01*
X006910Y012486D02*
X005832Y012486D01*
X005931Y012388D02*
X006973Y012388D01*
X007120Y012289D02*
X006029Y012289D01*
X007358Y012289D02*
X008069Y012289D01*
X008069Y012191D02*
X007565Y012191D01*
X007663Y012092D02*
X008069Y012092D01*
X008069Y011994D02*
X007762Y011994D01*
X007860Y011895D02*
X008069Y011895D01*
X008069Y011797D02*
X007959Y011797D01*
X008057Y011698D02*
X008069Y011698D01*
X008409Y011698D02*
X014811Y011698D01*
X014811Y011600D02*
X008409Y011600D01*
X008409Y011501D02*
X014811Y011501D01*
X014811Y011403D02*
X008409Y011403D01*
X008409Y011304D02*
X014811Y011304D01*
X014811Y011206D02*
X008409Y011206D01*
X008409Y011797D02*
X012007Y011797D01*
X011769Y011895D02*
X008409Y011895D01*
X008409Y011994D02*
X011624Y011994D01*
X011525Y012092D02*
X008409Y012092D01*
X008409Y012191D02*
X011436Y012191D01*
X011395Y012289D02*
X010358Y012289D01*
X010506Y012388D02*
X011354Y012388D01*
X011313Y012486D02*
X010568Y012486D01*
X010597Y012585D02*
X011308Y012585D01*
X011308Y012683D02*
X010597Y012683D01*
X010562Y012782D02*
X011308Y012782D01*
X011321Y012880D02*
X010491Y012880D01*
X009987Y012880D02*
X009491Y012880D01*
X009562Y012782D02*
X009916Y012782D01*
X009882Y012683D02*
X009597Y012683D01*
X009597Y012585D02*
X009882Y012585D01*
X009910Y012486D02*
X009568Y012486D01*
X009506Y012388D02*
X009973Y012388D01*
X010120Y012289D02*
X009358Y012289D01*
X009120Y012289D02*
X008409Y012289D01*
X008506Y012388D02*
X008973Y012388D01*
X008910Y012486D02*
X008568Y012486D01*
X008597Y012585D02*
X008882Y012585D01*
X008882Y012683D02*
X008597Y012683D01*
X008562Y012782D02*
X008916Y012782D01*
X008987Y012880D02*
X008491Y012880D01*
X007973Y012388D02*
X007506Y012388D01*
X007568Y012486D02*
X007910Y012486D01*
X007882Y012585D02*
X007597Y012585D01*
X007597Y012683D02*
X007882Y012683D01*
X007916Y012782D02*
X007562Y012782D01*
X007294Y010122D02*
X013878Y010122D01*
X013780Y010024D02*
X007195Y010024D01*
X006865Y009934D02*
X006865Y008788D01*
X004026Y005950D01*
X003904Y005985D01*
X003624Y005985D02*
X003597Y005985D01*
X003597Y005887D02*
X003642Y005887D01*
X003645Y005788D02*
X003705Y005788D01*
X003743Y005690D02*
X004871Y005690D01*
X004871Y005788D02*
X004105Y005788D01*
X004204Y005887D02*
X004871Y005887D01*
X004871Y005985D02*
X004302Y005985D01*
X004401Y006084D02*
X004936Y006084D01*
X004696Y006379D02*
X006156Y006379D01*
X006058Y006281D02*
X004598Y006281D01*
X004499Y006182D02*
X005960Y006182D01*
X005862Y006084D02*
X005716Y006084D01*
X006188Y005792D02*
X008334Y007969D01*
X012192Y007981D01*
X014101Y009804D01*
X013718Y009827D02*
X010543Y009827D01*
X010446Y009925D02*
X013737Y009925D01*
X013569Y009531D02*
X010586Y009531D01*
X010546Y009433D02*
X013466Y009433D01*
X013363Y009334D02*
X010452Y009334D01*
X010026Y009334D02*
X009452Y009334D01*
X009442Y009324D02*
X009542Y009424D01*
X009597Y009556D01*
X009597Y009698D01*
X009542Y009829D01*
X009442Y009930D01*
X009310Y009984D01*
X009168Y009984D01*
X009037Y009930D01*
X008936Y009829D01*
X008882Y009698D01*
X008882Y009556D01*
X008936Y009424D01*
X009037Y009324D01*
X009168Y009269D01*
X009310Y009269D01*
X009442Y009324D01*
X009546Y009433D02*
X009933Y009433D01*
X009892Y009531D02*
X009586Y009531D01*
X009597Y009630D02*
X009882Y009630D01*
X009894Y009728D02*
X009584Y009728D01*
X009543Y009827D02*
X009935Y009827D01*
X010032Y009925D02*
X009446Y009925D01*
X009032Y009925D02*
X007585Y009925D01*
X007597Y009827D02*
X008935Y009827D01*
X008894Y009728D02*
X007597Y009728D01*
X007597Y009630D02*
X008882Y009630D01*
X008892Y009531D02*
X007597Y009531D01*
X007597Y009433D02*
X008933Y009433D01*
X009026Y009334D02*
X007591Y009334D01*
X008176Y009627D02*
X007145Y008595D01*
X007035Y008743D02*
X009105Y008743D01*
X009005Y008645D02*
X006962Y008645D01*
X006863Y008546D02*
X008904Y008546D01*
X008803Y008448D02*
X006765Y008448D01*
X006666Y008349D02*
X008115Y008349D01*
X008017Y008251D02*
X006568Y008251D01*
X006469Y008152D02*
X007920Y008152D01*
X007822Y008054D02*
X006371Y008054D01*
X006272Y007955D02*
X007724Y007955D01*
X007626Y007857D02*
X006174Y007857D01*
X006075Y007758D02*
X007528Y007758D01*
X007430Y007660D02*
X005977Y007660D01*
X005878Y007561D02*
X007332Y007561D01*
X007234Y007463D02*
X005780Y007463D01*
X005681Y007364D02*
X007136Y007364D01*
X007038Y007266D02*
X005583Y007266D01*
X005484Y007167D02*
X006940Y007167D01*
X006842Y007069D02*
X005386Y007069D01*
X005287Y006970D02*
X006744Y006970D01*
X006646Y006872D02*
X005189Y006872D01*
X005090Y006773D02*
X006548Y006773D01*
X006450Y006675D02*
X004992Y006675D01*
X004893Y006576D02*
X006352Y006576D01*
X006254Y006478D02*
X004795Y006478D01*
X004511Y006675D02*
X003597Y006675D01*
X003597Y006773D02*
X004610Y006773D01*
X004708Y006872D02*
X003597Y006872D01*
X003597Y006970D02*
X004807Y006970D01*
X004905Y007069D02*
X003653Y007069D01*
X003752Y007167D02*
X005004Y007167D01*
X005102Y007266D02*
X003850Y007266D01*
X003949Y007364D02*
X005201Y007364D01*
X005299Y007463D02*
X004047Y007463D01*
X004146Y007561D02*
X005398Y007561D01*
X005496Y007660D02*
X004244Y007660D01*
X004343Y007758D02*
X005595Y007758D01*
X005693Y007857D02*
X004441Y007857D01*
X004540Y007955D02*
X005792Y007955D01*
X005890Y008054D02*
X005075Y008054D01*
X005174Y008152D02*
X005989Y008152D01*
X006087Y008251D02*
X005272Y008251D01*
X005371Y008349D02*
X005941Y008349D01*
X006145Y008595D02*
X003743Y008572D01*
X003597Y006576D02*
X004413Y006576D01*
X004314Y006478D02*
X003597Y006478D01*
X003597Y006379D02*
X004216Y006379D01*
X004117Y006281D02*
X003597Y006281D01*
X003597Y006182D02*
X003706Y006182D01*
X003642Y006084D02*
X003597Y006084D01*
X003842Y005591D02*
X004871Y005591D01*
X004871Y005493D02*
X003912Y005493D01*
X003912Y005394D02*
X004871Y005394D01*
X004871Y005296D02*
X003912Y005296D01*
X003912Y005197D02*
X004871Y005197D01*
X004871Y005099D02*
X003912Y005099D01*
X003912Y005000D02*
X004782Y005000D01*
X005621Y004316D02*
X006188Y004883D01*
X006188Y005792D01*
X006991Y006343D02*
X008369Y007757D01*
X013011Y007749D01*
X014101Y008804D01*
X013743Y008940D02*
X013443Y008940D01*
X013546Y009039D02*
X013795Y009039D01*
X013905Y009137D02*
X013649Y009137D01*
X013752Y009236D02*
X014811Y009236D01*
X014811Y009334D02*
X013855Y009334D01*
X013959Y009433D02*
X013997Y009433D01*
X014205Y009433D02*
X014811Y009433D01*
X014811Y009137D02*
X014297Y009137D01*
X014408Y009039D02*
X014811Y009039D01*
X014811Y008940D02*
X014459Y008940D01*
X014484Y008842D02*
X014811Y008842D01*
X014811Y008743D02*
X014484Y008743D01*
X014450Y008645D02*
X014811Y008645D01*
X014811Y008546D02*
X014385Y008546D01*
X014241Y008448D02*
X014811Y008448D01*
X014811Y008349D02*
X013876Y008349D01*
X013774Y008251D02*
X014811Y008251D01*
X014811Y008152D02*
X014261Y008152D01*
X014393Y008054D02*
X014811Y008054D01*
X014811Y007955D02*
X014453Y007955D01*
X014484Y007857D02*
X014811Y007857D01*
X014811Y007758D02*
X014484Y007758D01*
X014456Y007660D02*
X014811Y007660D01*
X014811Y007561D02*
X014400Y007561D01*
X014278Y007463D02*
X014811Y007463D01*
X014811Y007364D02*
X011848Y007364D01*
X011947Y007266D02*
X014811Y007266D01*
X014811Y007167D02*
X014225Y007167D01*
X014378Y007069D02*
X014811Y007069D01*
X014811Y006970D02*
X014447Y006970D01*
X014484Y006872D02*
X014811Y006872D01*
X014811Y006773D02*
X014484Y006773D01*
X014462Y006675D02*
X014811Y006675D01*
X014811Y006576D02*
X014415Y006576D01*
X014314Y006478D02*
X014811Y006478D01*
X014811Y006379D02*
X012428Y006379D01*
X012526Y006281D02*
X014811Y006281D01*
X014811Y006182D02*
X014188Y006182D01*
X014014Y006182D02*
X012625Y006182D01*
X012723Y006084D02*
X013840Y006084D01*
X013762Y005985D02*
X012822Y005985D01*
X012920Y005887D02*
X013721Y005887D01*
X013718Y005788D02*
X013019Y005788D01*
X012952Y005615D02*
X011479Y007087D01*
X008586Y007087D01*
X007660Y006162D01*
X007660Y003709D01*
X007377Y003426D01*
X006227Y003426D01*
X005873Y003072D01*
X004979Y003072D01*
X004826Y002918D01*
X004826Y002587D01*
X005019Y002394D01*
X005019Y002304D01*
X005412Y002367D02*
X005412Y002717D01*
X005558Y002863D01*
X005979Y002863D01*
X006334Y003217D01*
X007507Y003217D01*
X007881Y003591D01*
X007881Y006076D01*
X008660Y006855D01*
X011412Y006855D01*
X013463Y004804D01*
X014101Y004804D01*
X014484Y004803D02*
X014811Y004803D01*
X014811Y004705D02*
X014474Y004705D01*
X014434Y004606D02*
X014811Y004606D01*
X014811Y004508D02*
X014346Y004508D01*
X014333Y004114D02*
X014811Y004114D01*
X014811Y004212D02*
X013933Y004212D01*
X013835Y004311D02*
X014811Y004311D01*
X014811Y004409D02*
X013736Y004409D01*
X013638Y004508D02*
X013856Y004508D01*
X013769Y004606D02*
X013539Y004606D01*
X013256Y004409D02*
X011286Y004409D01*
X011286Y004311D02*
X013354Y004311D01*
X013453Y004212D02*
X011286Y004212D01*
X011286Y004114D02*
X013551Y004114D01*
X013650Y004015D02*
X011286Y004015D01*
X011286Y003917D02*
X013734Y003917D01*
X013718Y003818D02*
X011286Y003818D01*
X011286Y003720D02*
X013722Y003720D01*
X013763Y003621D02*
X011286Y003621D01*
X011286Y003523D02*
X013841Y003523D01*
X014018Y003424D02*
X011286Y003424D01*
X011286Y003326D02*
X014811Y003326D01*
X014811Y003424D02*
X014185Y003424D01*
X014361Y003523D02*
X014811Y003523D01*
X014811Y003621D02*
X014440Y003621D01*
X014481Y003720D02*
X014811Y003720D01*
X014811Y003818D02*
X014484Y003818D01*
X014469Y003917D02*
X014811Y003917D01*
X014811Y004015D02*
X014428Y004015D01*
X014101Y003804D02*
X011274Y006631D01*
X008759Y006631D01*
X008164Y006036D01*
X008164Y003107D01*
X008058Y003001D01*
X006483Y003001D01*
X006062Y002580D01*
X005802Y002580D01*
X006162Y002439D02*
X010806Y002439D01*
X010806Y002341D02*
X008146Y002341D01*
X008146Y002242D02*
X010806Y002242D01*
X010763Y002144D02*
X008146Y002144D01*
X008146Y002045D02*
X010664Y002045D01*
X010374Y001947D02*
X008146Y001947D01*
X008146Y001848D02*
X010266Y001848D01*
X010215Y001750D02*
X008146Y001750D01*
X008146Y001651D02*
X010191Y001651D01*
X010191Y001553D02*
X008146Y001553D01*
X008146Y001454D02*
X010226Y001454D01*
X010292Y001356D02*
X005630Y001356D01*
X005628Y001257D02*
X010437Y001257D01*
X010710Y001257D02*
X011398Y001257D01*
X011439Y001159D02*
X005605Y001159D01*
X005544Y001060D02*
X011534Y001060D01*
X011358Y001356D02*
X010856Y001356D01*
X010921Y001454D02*
X011317Y001454D01*
X011308Y001553D02*
X010956Y001553D01*
X010956Y001651D02*
X011308Y001651D01*
X011308Y001750D02*
X011048Y001750D01*
X011146Y001848D02*
X011317Y001848D01*
X011358Y001947D02*
X011245Y001947D01*
X011286Y002045D02*
X011399Y002045D01*
X011440Y002144D02*
X011286Y002144D01*
X011286Y002242D02*
X011535Y002242D01*
X011634Y002341D02*
X011286Y002341D01*
X011286Y002439D02*
X011793Y002439D01*
X011286Y002538D02*
X014811Y002538D01*
X014811Y002636D02*
X011286Y002636D01*
X011286Y002735D02*
X014811Y002735D01*
X014811Y002833D02*
X011286Y002833D01*
X011286Y002932D02*
X014811Y002932D01*
X014811Y003030D02*
X011286Y003030D01*
X011286Y003129D02*
X014811Y003129D01*
X014811Y003227D02*
X011286Y003227D01*
X010806Y003227D02*
X008334Y003227D01*
X008334Y003129D02*
X010806Y003129D01*
X010806Y003030D02*
X008328Y003030D01*
X008229Y002932D02*
X010806Y002932D01*
X010806Y002833D02*
X008131Y002833D01*
X008334Y003326D02*
X010806Y003326D01*
X010806Y003424D02*
X008334Y003424D01*
X008334Y003523D02*
X010806Y003523D01*
X010806Y003621D02*
X008334Y003621D01*
X008334Y003720D02*
X010806Y003720D01*
X010806Y003818D02*
X008334Y003818D01*
X008334Y003917D02*
X010806Y003917D01*
X010806Y004015D02*
X008334Y004015D01*
X008334Y004114D02*
X010806Y004114D01*
X010806Y004212D02*
X008334Y004212D01*
X008334Y004311D02*
X010806Y004311D01*
X010806Y004409D02*
X008334Y004409D01*
X008334Y004508D02*
X008414Y004508D01*
X008414Y004606D02*
X008334Y004606D01*
X008334Y004705D02*
X008414Y004705D01*
X008414Y004803D02*
X008334Y004803D01*
X008334Y004902D02*
X008414Y004902D01*
X008414Y005000D02*
X008334Y005000D01*
X008334Y005099D02*
X008414Y005099D01*
X008414Y005197D02*
X008334Y005197D01*
X008334Y005296D02*
X008414Y005296D01*
X008414Y005394D02*
X008334Y005394D01*
X008334Y005493D02*
X008414Y005493D01*
X008414Y005591D02*
X008334Y005591D01*
X008334Y005690D02*
X008414Y005690D01*
X008414Y005788D02*
X008334Y005788D01*
X008334Y005887D02*
X008414Y005887D01*
X008414Y005985D02*
X008354Y005985D01*
X008452Y006084D02*
X008479Y006084D01*
X008551Y006182D02*
X008651Y006182D01*
X008869Y006206D02*
X008952Y006288D01*
X008869Y006206D02*
X008869Y005261D01*
X009324Y005296D02*
X010806Y005296D01*
X010806Y005394D02*
X009324Y005394D01*
X009324Y005493D02*
X010806Y005493D01*
X010806Y005591D02*
X009324Y005591D01*
X009324Y005690D02*
X010806Y005690D01*
X010806Y005788D02*
X009324Y005788D01*
X009324Y005887D02*
X010728Y005887D01*
X010728Y005985D02*
X009324Y005985D01*
X009259Y006084D02*
X010728Y006084D01*
X010728Y006182D02*
X009252Y006182D01*
X009270Y006281D02*
X010728Y006281D01*
X010729Y006379D02*
X009258Y006379D01*
X009324Y005197D02*
X010806Y005197D01*
X010806Y005099D02*
X009324Y005099D01*
X009324Y005000D02*
X010806Y005000D01*
X010806Y004902D02*
X009324Y004902D01*
X009324Y004803D02*
X010806Y004803D01*
X010806Y004705D02*
X009324Y004705D01*
X009324Y004606D02*
X010806Y004606D01*
X010806Y004508D02*
X009324Y004508D01*
X011286Y004508D02*
X013157Y004508D01*
X013059Y004606D02*
X011286Y004606D01*
X011286Y004705D02*
X012960Y004705D01*
X012862Y004803D02*
X011286Y004803D01*
X011286Y004902D02*
X012763Y004902D01*
X012665Y005000D02*
X011286Y005000D01*
X011286Y005099D02*
X012566Y005099D01*
X012468Y005197D02*
X011286Y005197D01*
X011286Y005296D02*
X012369Y005296D01*
X012271Y005394D02*
X011286Y005394D01*
X011286Y005493D02*
X012172Y005493D01*
X012074Y005591D02*
X011286Y005591D01*
X011286Y005690D02*
X011975Y005690D01*
X011877Y005788D02*
X011286Y005788D01*
X011364Y005887D02*
X011778Y005887D01*
X011680Y005985D02*
X011364Y005985D01*
X011364Y006084D02*
X011581Y006084D01*
X011483Y006182D02*
X011364Y006182D01*
X011364Y006281D02*
X011384Y006281D01*
X012290Y006682D02*
X013979Y006682D01*
X014101Y006804D01*
X013825Y007069D02*
X012144Y007069D01*
X012045Y007167D02*
X013978Y007167D01*
X013756Y006970D02*
X012242Y006970D01*
X012341Y006872D02*
X013718Y006872D01*
X013889Y006478D02*
X012329Y006478D01*
X012290Y006682D02*
X011652Y007320D01*
X008507Y007320D01*
X007444Y006257D01*
X007444Y003942D01*
X007121Y003619D01*
X006101Y003619D01*
X005798Y003316D01*
X004908Y003316D01*
X004601Y003009D01*
X004601Y002300D01*
X004259Y002552D02*
X004259Y002934D01*
X004920Y003595D01*
X005727Y003595D01*
X005991Y003859D01*
X006908Y003859D01*
X007208Y004158D01*
X007208Y006308D01*
X008467Y007568D01*
X013865Y007568D01*
X014101Y007804D01*
X013750Y007955D02*
X013468Y007955D01*
X013367Y007857D02*
X013718Y007857D01*
X013718Y007758D02*
X013265Y007758D01*
X012979Y007955D02*
X012411Y007955D01*
X012514Y008054D02*
X013081Y008054D01*
X013183Y008152D02*
X012617Y008152D01*
X012720Y008251D02*
X013285Y008251D01*
X013387Y008349D02*
X012824Y008349D01*
X012927Y008448D02*
X013489Y008448D01*
X013590Y008546D02*
X013030Y008546D01*
X013133Y008645D02*
X013692Y008645D01*
X013718Y008743D02*
X013236Y008743D01*
X013339Y008842D02*
X013718Y008842D01*
X013260Y009236D02*
X011491Y009236D01*
X011549Y009137D02*
X013157Y009137D01*
X013053Y009039D02*
X011549Y009039D01*
X011549Y008940D02*
X012950Y008940D01*
X012847Y008842D02*
X011549Y008842D01*
X011549Y008743D02*
X012744Y008743D01*
X012641Y008645D02*
X011512Y008645D01*
X012125Y008152D02*
X009073Y008152D01*
X009174Y008251D02*
X012228Y008251D01*
X012331Y008349D02*
X009274Y008349D01*
X009375Y008448D02*
X012434Y008448D01*
X012538Y008546D02*
X009476Y008546D01*
X009576Y008645D02*
X010951Y008645D01*
X010913Y009137D02*
X007035Y009137D01*
X007035Y009039D02*
X009407Y009039D01*
X009306Y008940D02*
X007035Y008940D01*
X007035Y008842D02*
X009206Y008842D01*
X008239Y009627D02*
X008176Y009627D01*
X008239Y009627D02*
X008641Y010028D01*
X011578Y010028D01*
X011861Y010312D01*
X011861Y010509D01*
X012369Y011797D02*
X014811Y011797D01*
X014811Y011895D02*
X012607Y011895D01*
X012752Y011994D02*
X014811Y011994D01*
X014811Y012092D02*
X012850Y012092D01*
X012940Y012191D02*
X014811Y012191D01*
X014793Y012289D02*
X012981Y012289D01*
X013022Y012388D02*
X014695Y012388D01*
X014596Y012486D02*
X013062Y012486D01*
X013068Y012585D02*
X014498Y012585D01*
X014399Y012683D02*
X013068Y012683D01*
X013068Y012782D02*
X014301Y012782D01*
X014202Y012880D02*
X013055Y012880D01*
X013014Y012979D02*
X014104Y012979D01*
X014005Y013077D02*
X012973Y013077D01*
X012931Y013176D02*
X013907Y013176D01*
X013808Y013274D02*
X012832Y013274D01*
X011544Y013274D02*
X001808Y013274D01*
X001907Y013176D02*
X011445Y013176D01*
X010971Y009236D02*
X007035Y009236D01*
X006991Y006343D02*
X006991Y004670D01*
X006416Y004095D01*
X005105Y004095D01*
X003794Y002784D01*
X003794Y002572D01*
X003546Y002439D02*
X001559Y002439D01*
X001504Y002462D02*
X002704Y003662D01*
X002704Y003717D01*
X003506Y004519D01*
X003594Y004519D01*
X003549Y004474D01*
X003506Y004371D01*
X003506Y004260D01*
X003549Y004157D01*
X003628Y004078D01*
X003731Y004036D01*
X003842Y004036D01*
X003945Y004078D01*
X004012Y004146D01*
X004915Y004146D01*
X003624Y002855D01*
X003624Y002798D01*
X003557Y002730D01*
X003514Y002627D01*
X003514Y002516D01*
X003552Y002424D01*
X002032Y002424D01*
X001962Y002354D01*
X001962Y002025D01*
X001910Y002149D01*
X001663Y002396D01*
X001504Y002462D01*
X001579Y002538D02*
X003514Y002538D01*
X003518Y002636D02*
X001678Y002636D01*
X001776Y002735D02*
X003561Y002735D01*
X003624Y002833D02*
X001875Y002833D01*
X001973Y002932D02*
X003701Y002932D01*
X003800Y003030D02*
X002072Y003030D01*
X002170Y003129D02*
X003898Y003129D01*
X003997Y003227D02*
X002269Y003227D01*
X002367Y003326D02*
X004095Y003326D01*
X004194Y003424D02*
X002466Y003424D01*
X002564Y003523D02*
X004292Y003523D01*
X004391Y003621D02*
X002663Y003621D01*
X002706Y003720D02*
X004489Y003720D01*
X004588Y003818D02*
X002804Y003818D01*
X002903Y003917D02*
X004686Y003917D01*
X004785Y004015D02*
X003001Y004015D01*
X003100Y004114D02*
X003592Y004114D01*
X003526Y004212D02*
X003198Y004212D01*
X003297Y004311D02*
X003506Y004311D01*
X003522Y004409D02*
X003395Y004409D01*
X003494Y004508D02*
X003582Y004508D01*
X003786Y004316D02*
X005621Y004316D01*
X004883Y004114D02*
X003980Y004114D01*
X002771Y003272D02*
X002680Y003182D01*
X002680Y002599D01*
X000625Y002599D01*
X000621Y002603D01*
X000621Y003272D01*
X000625Y003257D01*
X000641Y003272D01*
X002771Y003272D01*
X002725Y003227D02*
X000621Y003227D01*
X000621Y003129D02*
X002680Y003129D01*
X002680Y003030D02*
X000621Y003030D01*
X000621Y002932D02*
X002680Y002932D01*
X002680Y002833D02*
X000621Y002833D01*
X000621Y002735D02*
X002680Y002735D01*
X002680Y002636D02*
X000621Y002636D01*
X000510Y002636D02*
X001241Y002636D01*
X001339Y002735D02*
X000510Y002735D01*
X000510Y002833D02*
X001377Y002833D01*
X001377Y002932D02*
X000510Y002932D01*
X000510Y003030D02*
X001377Y003030D01*
X001377Y003129D02*
X000510Y003129D01*
X000510Y003227D02*
X001377Y003227D01*
X001377Y003326D02*
X000510Y003326D01*
X000510Y003424D02*
X001377Y003424D01*
X001377Y003621D02*
X001336Y003621D01*
X001300Y004606D02*
X001377Y004606D01*
X001377Y005591D02*
X001264Y005591D01*
X001142Y002538D02*
X000510Y002538D01*
X000510Y002439D02*
X000769Y002439D01*
X000610Y002341D02*
X000510Y002341D01*
X000510Y002242D02*
X000512Y002242D01*
X001718Y002341D02*
X001962Y002341D01*
X001962Y002242D02*
X001817Y002242D01*
X001912Y002144D02*
X001962Y002144D01*
X001953Y002045D02*
X001962Y002045D01*
X003184Y001891D02*
X003928Y001891D01*
X004546Y001272D01*
X005310Y001276D02*
X005924Y001891D01*
X006924Y001891D01*
X006920Y001894D01*
X006260Y002538D02*
X010806Y002538D01*
X010806Y002636D02*
X006359Y002636D01*
X006457Y002735D02*
X010806Y002735D01*
X012583Y002439D02*
X014811Y002439D01*
X014811Y002341D02*
X012742Y002341D01*
X012977Y002045D02*
X014614Y002045D01*
X014516Y001947D02*
X013018Y001947D01*
X013058Y001848D02*
X014417Y001848D01*
X014319Y001750D02*
X013068Y001750D01*
X013068Y001651D02*
X014220Y001651D01*
X014122Y001553D02*
X013068Y001553D01*
X013059Y001454D02*
X014023Y001454D01*
X013925Y001356D02*
X013018Y001356D01*
X012977Y001257D02*
X013826Y001257D01*
X013728Y001159D02*
X012937Y001159D01*
X012842Y001060D02*
X013629Y001060D01*
X014475Y004902D02*
X014811Y004902D01*
X014811Y005000D02*
X014434Y005000D01*
X014348Y005099D02*
X014811Y005099D01*
X014811Y005197D02*
X013311Y005197D01*
X013409Y005099D02*
X013855Y005099D01*
X013768Y005000D02*
X013508Y005000D01*
X013212Y005296D02*
X014811Y005296D01*
X014811Y005394D02*
X013114Y005394D01*
X012952Y005615D02*
X013912Y005615D01*
X014101Y005804D01*
X014363Y006084D02*
X014811Y006084D01*
X014811Y005985D02*
X014441Y005985D01*
X014481Y005887D02*
X014811Y005887D01*
X014811Y005788D02*
X014484Y005788D01*
X014468Y005690D02*
X014811Y005690D01*
X014811Y005591D02*
X014427Y005591D01*
X014331Y005493D02*
X014811Y005493D01*
X013810Y008054D02*
X013570Y008054D01*
X013672Y008152D02*
X013942Y008152D01*
X005432Y002347D02*
X005412Y002367D01*
D21*
X004784Y004719D02*
X002804Y004719D01*
X001995Y003910D01*
X004318Y005276D02*
X004318Y005698D01*
X006223Y007603D01*
X006223Y007674D01*
X007145Y008595D01*
X008227Y008178D02*
X008814Y008178D01*
X009582Y008930D01*
X011231Y008930D01*
X008227Y008178D02*
X005326Y005261D01*
X004784Y004719D01*
M02*
