G75*
G70*
%OFA0B0*%
%FSLAX24Y24*%
%IPPOS*%
%LPD*%
%AMOC8*
5,1,8,0,0,1.08239X$1,22.5*
%
%ADD10C,0.0000*%
%ADD11C,0.0160*%
D10*
X000534Y001650D02*
X000536Y001700D01*
X000542Y001750D01*
X000552Y001799D01*
X000566Y001847D01*
X000583Y001894D01*
X000604Y001939D01*
X000629Y001983D01*
X000657Y002024D01*
X000689Y002063D01*
X000723Y002100D01*
X000760Y002134D01*
X000800Y002164D01*
X000842Y002191D01*
X000886Y002215D01*
X000932Y002236D01*
X000979Y002252D01*
X001027Y002265D01*
X001077Y002274D01*
X001126Y002279D01*
X001177Y002280D01*
X001227Y002277D01*
X001276Y002270D01*
X001325Y002259D01*
X001373Y002244D01*
X001419Y002226D01*
X001464Y002204D01*
X001507Y002178D01*
X001548Y002149D01*
X001587Y002117D01*
X001623Y002082D01*
X001655Y002044D01*
X001685Y002004D01*
X001712Y001961D01*
X001735Y001917D01*
X001754Y001871D01*
X001770Y001823D01*
X001782Y001774D01*
X001790Y001725D01*
X001794Y001675D01*
X001794Y001625D01*
X001790Y001575D01*
X001782Y001526D01*
X001770Y001477D01*
X001754Y001429D01*
X001735Y001383D01*
X001712Y001339D01*
X001685Y001296D01*
X001655Y001256D01*
X001623Y001218D01*
X001587Y001183D01*
X001548Y001151D01*
X001507Y001122D01*
X001464Y001096D01*
X001419Y001074D01*
X001373Y001056D01*
X001325Y001041D01*
X001276Y001030D01*
X001227Y001023D01*
X001177Y001020D01*
X001126Y001021D01*
X001077Y001026D01*
X001027Y001035D01*
X000979Y001048D01*
X000932Y001064D01*
X000886Y001085D01*
X000842Y001109D01*
X000800Y001136D01*
X000760Y001166D01*
X000723Y001200D01*
X000689Y001237D01*
X000657Y001276D01*
X000629Y001317D01*
X000604Y001361D01*
X000583Y001406D01*
X000566Y001453D01*
X000552Y001501D01*
X000542Y001550D01*
X000536Y001600D01*
X000534Y001650D01*
X011558Y001650D02*
X011560Y001700D01*
X011566Y001750D01*
X011576Y001799D01*
X011590Y001847D01*
X011607Y001894D01*
X011628Y001939D01*
X011653Y001983D01*
X011681Y002024D01*
X011713Y002063D01*
X011747Y002100D01*
X011784Y002134D01*
X011824Y002164D01*
X011866Y002191D01*
X011910Y002215D01*
X011956Y002236D01*
X012003Y002252D01*
X012051Y002265D01*
X012101Y002274D01*
X012150Y002279D01*
X012201Y002280D01*
X012251Y002277D01*
X012300Y002270D01*
X012349Y002259D01*
X012397Y002244D01*
X012443Y002226D01*
X012488Y002204D01*
X012531Y002178D01*
X012572Y002149D01*
X012611Y002117D01*
X012647Y002082D01*
X012679Y002044D01*
X012709Y002004D01*
X012736Y001961D01*
X012759Y001917D01*
X012778Y001871D01*
X012794Y001823D01*
X012806Y001774D01*
X012814Y001725D01*
X012818Y001675D01*
X012818Y001625D01*
X012814Y001575D01*
X012806Y001526D01*
X012794Y001477D01*
X012778Y001429D01*
X012759Y001383D01*
X012736Y001339D01*
X012709Y001296D01*
X012679Y001256D01*
X012647Y001218D01*
X012611Y001183D01*
X012572Y001151D01*
X012531Y001122D01*
X012488Y001096D01*
X012443Y001074D01*
X012397Y001056D01*
X012349Y001041D01*
X012300Y001030D01*
X012251Y001023D01*
X012201Y001020D01*
X012150Y001021D01*
X012101Y001026D01*
X012051Y001035D01*
X012003Y001048D01*
X011956Y001064D01*
X011910Y001085D01*
X011866Y001109D01*
X011824Y001136D01*
X011784Y001166D01*
X011747Y001200D01*
X011713Y001237D01*
X011681Y001276D01*
X011653Y001317D01*
X011628Y001361D01*
X011607Y001406D01*
X011590Y001453D01*
X011576Y001501D01*
X011566Y001550D01*
X011560Y001600D01*
X011558Y001650D01*
X015141Y000666D02*
X039550Y000666D01*
X039550Y032162D01*
X000180Y032162D01*
X000180Y013658D01*
X000534Y012674D02*
X000536Y012724D01*
X000542Y012774D01*
X000552Y012823D01*
X000566Y012871D01*
X000583Y012918D01*
X000604Y012963D01*
X000629Y013007D01*
X000657Y013048D01*
X000689Y013087D01*
X000723Y013124D01*
X000760Y013158D01*
X000800Y013188D01*
X000842Y013215D01*
X000886Y013239D01*
X000932Y013260D01*
X000979Y013276D01*
X001027Y013289D01*
X001077Y013298D01*
X001126Y013303D01*
X001177Y013304D01*
X001227Y013301D01*
X001276Y013294D01*
X001325Y013283D01*
X001373Y013268D01*
X001419Y013250D01*
X001464Y013228D01*
X001507Y013202D01*
X001548Y013173D01*
X001587Y013141D01*
X001623Y013106D01*
X001655Y013068D01*
X001685Y013028D01*
X001712Y012985D01*
X001735Y012941D01*
X001754Y012895D01*
X001770Y012847D01*
X001782Y012798D01*
X001790Y012749D01*
X001794Y012699D01*
X001794Y012649D01*
X001790Y012599D01*
X001782Y012550D01*
X001770Y012501D01*
X001754Y012453D01*
X001735Y012407D01*
X001712Y012363D01*
X001685Y012320D01*
X001655Y012280D01*
X001623Y012242D01*
X001587Y012207D01*
X001548Y012175D01*
X001507Y012146D01*
X001464Y012120D01*
X001419Y012098D01*
X001373Y012080D01*
X001325Y012065D01*
X001276Y012054D01*
X001227Y012047D01*
X001177Y012044D01*
X001126Y012045D01*
X001077Y012050D01*
X001027Y012059D01*
X000979Y012072D01*
X000932Y012088D01*
X000886Y012109D01*
X000842Y012133D01*
X000800Y012160D01*
X000760Y012190D01*
X000723Y012224D01*
X000689Y012261D01*
X000657Y012300D01*
X000629Y012341D01*
X000604Y012385D01*
X000583Y012430D01*
X000566Y012477D01*
X000552Y012525D01*
X000542Y012574D01*
X000536Y012624D01*
X000534Y012674D01*
X011558Y012674D02*
X011560Y012724D01*
X011566Y012774D01*
X011576Y012823D01*
X011590Y012871D01*
X011607Y012918D01*
X011628Y012963D01*
X011653Y013007D01*
X011681Y013048D01*
X011713Y013087D01*
X011747Y013124D01*
X011784Y013158D01*
X011824Y013188D01*
X011866Y013215D01*
X011910Y013239D01*
X011956Y013260D01*
X012003Y013276D01*
X012051Y013289D01*
X012101Y013298D01*
X012150Y013303D01*
X012201Y013304D01*
X012251Y013301D01*
X012300Y013294D01*
X012349Y013283D01*
X012397Y013268D01*
X012443Y013250D01*
X012488Y013228D01*
X012531Y013202D01*
X012572Y013173D01*
X012611Y013141D01*
X012647Y013106D01*
X012679Y013068D01*
X012709Y013028D01*
X012736Y012985D01*
X012759Y012941D01*
X012778Y012895D01*
X012794Y012847D01*
X012806Y012798D01*
X012814Y012749D01*
X012818Y012699D01*
X012818Y012649D01*
X012814Y012599D01*
X012806Y012550D01*
X012794Y012501D01*
X012778Y012453D01*
X012759Y012407D01*
X012736Y012363D01*
X012709Y012320D01*
X012679Y012280D01*
X012647Y012242D01*
X012611Y012207D01*
X012572Y012175D01*
X012531Y012146D01*
X012488Y012120D01*
X012443Y012098D01*
X012397Y012080D01*
X012349Y012065D01*
X012300Y012054D01*
X012251Y012047D01*
X012201Y012044D01*
X012150Y012045D01*
X012101Y012050D01*
X012051Y012059D01*
X012003Y012072D01*
X011956Y012088D01*
X011910Y012109D01*
X011866Y012133D01*
X011824Y012160D01*
X011784Y012190D01*
X011747Y012224D01*
X011713Y012261D01*
X011681Y012300D01*
X011653Y012341D01*
X011628Y012385D01*
X011607Y012430D01*
X011590Y012477D01*
X011576Y012525D01*
X011566Y012574D01*
X011560Y012624D01*
X011558Y012674D01*
D11*
X000180Y013658D02*
X000180Y000666D01*
X015141Y000666D01*
X015141Y013658D01*
X000180Y013658D01*
M02*
