G75*
G70*
%OFA0B0*%
%FSLAX24Y24*%
%IPPOS*%
%LPD*%
%AMOC8*
5,1,8,0,0,1.08239X$1,22.5*
%
%ADD10R,0.0500X0.0220*%
%ADD11R,0.0220X0.0500*%
%ADD12R,0.0394X0.0433*%
%ADD13R,0.0512X0.0591*%
%ADD14C,0.0396*%
%ADD15R,0.0354X0.0157*%
%ADD16R,0.0433X0.0394*%
%ADD17R,0.0630X0.0217*%
%ADD18C,0.0526*%
%ADD19C,0.0110*%
%ADD20R,0.0354X0.0079*%
%ADD21C,0.0320*%
%ADD22C,0.0079*%
%ADD23R,0.0433X0.0866*%
%ADD24R,0.0236X0.0157*%
%ADD25R,0.0157X0.0236*%
%ADD26R,0.0866X0.0433*%
%ADD27R,0.0475X0.0475*%
%ADD28C,0.0475*%
%ADD29R,0.0591X0.0512*%
%ADD30C,0.0100*%
%ADD31C,0.0240*%
%ADD32R,0.0396X0.0396*%
%ADD33C,0.0160*%
%ADD34OC8,0.0396*%
D10*
X002880Y004087D03*
X002880Y004402D03*
X002880Y004717D03*
X002880Y005032D03*
X002880Y005347D03*
X002880Y005662D03*
X002880Y005977D03*
X002880Y006292D03*
X006260Y006292D03*
X006260Y005977D03*
X006260Y005662D03*
X006260Y005347D03*
X006260Y005032D03*
X006260Y004717D03*
X006260Y004402D03*
X006260Y004087D03*
D11*
X005672Y003500D03*
X005357Y003500D03*
X005042Y003500D03*
X004727Y003500D03*
X004412Y003500D03*
X004097Y003500D03*
X003782Y003500D03*
X003467Y003500D03*
X003467Y006880D03*
X003782Y006880D03*
X004097Y006880D03*
X004412Y006880D03*
X004727Y006880D03*
X005042Y006880D03*
X005357Y006880D03*
X005672Y006880D03*
D12*
X002613Y001359D03*
X003282Y001359D03*
X005940Y001371D03*
X006609Y001371D03*
X005318Y008572D03*
X004649Y008572D03*
X003652Y008631D03*
X002983Y008631D03*
X004011Y009709D03*
X004680Y009709D03*
X002971Y010831D03*
X003149Y011402D03*
X002479Y011402D03*
X002302Y010831D03*
X002204Y011965D03*
X002247Y012552D03*
X002916Y012552D03*
X002873Y011965D03*
D13*
X008802Y005670D03*
X009550Y005670D03*
X011247Y003769D03*
X011995Y003769D03*
X010416Y002670D03*
X009668Y002670D03*
X001735Y002934D03*
X000987Y002934D03*
X011168Y009650D03*
X011916Y009650D03*
D14*
X008952Y006288D03*
X007145Y008595D03*
X006145Y008595D03*
X002046Y010269D03*
X004546Y001272D03*
X005310Y001276D03*
D15*
X004845Y010143D03*
X004845Y010398D03*
X004845Y010654D03*
X003979Y010654D03*
X003979Y010398D03*
X003971Y010143D03*
D16*
X003286Y010320D03*
X002672Y010324D03*
X002672Y009654D03*
X003286Y009650D03*
X005700Y009749D03*
X005700Y010418D03*
X011200Y011068D03*
X011200Y011737D03*
D17*
X005995Y011513D03*
X005995Y012013D03*
X005995Y012513D03*
X005995Y013013D03*
X003869Y013013D03*
X003869Y012513D03*
X003869Y012013D03*
X003869Y011513D03*
D18*
X001129Y011127D03*
X001129Y010127D03*
X001129Y009127D03*
X001129Y008127D03*
X001129Y006950D03*
X001129Y005950D03*
X001129Y004950D03*
X001129Y003950D03*
X009574Y001615D03*
X010574Y001615D03*
X014101Y003804D03*
X014101Y004804D03*
X014101Y005804D03*
X014101Y006804D03*
X014101Y007804D03*
X014101Y008804D03*
X014101Y009804D03*
X014101Y010804D03*
D19*
X010156Y004875D02*
X010156Y004651D01*
X009960Y004651D02*
X009960Y004875D01*
X009763Y004875D02*
X009763Y004651D01*
X009566Y004651D02*
X009566Y004875D01*
X009369Y004875D02*
X009369Y004651D01*
X009136Y004379D02*
X008912Y004379D01*
X008912Y003788D02*
X009136Y003788D01*
X009369Y003516D02*
X009369Y003292D01*
X009566Y003292D02*
X009566Y003516D01*
X009763Y003516D02*
X009763Y003292D01*
X009960Y003292D02*
X009960Y003516D01*
X010156Y003516D02*
X010156Y003292D01*
X010389Y003788D02*
X010613Y003788D01*
X010613Y004379D02*
X010389Y004379D01*
D20*
X010491Y004192D03*
X010491Y003975D03*
X009034Y003975D03*
X009034Y004192D03*
D21*
X009561Y004285D03*
X009561Y003882D03*
X009964Y003882D03*
X009964Y004285D03*
X005802Y002580D03*
X005432Y002347D03*
X005019Y002304D03*
X004601Y002300D03*
X004259Y002552D03*
X003794Y002572D03*
X003786Y004316D03*
X003904Y005985D03*
D22*
X007444Y004217D02*
X007444Y003209D01*
X007180Y002946D01*
X007180Y001796D01*
X007991Y000986D01*
X010263Y000986D01*
X010920Y001643D01*
X010912Y001643D01*
X010849Y001706D01*
X010849Y003087D01*
X010385Y003552D01*
X009837Y003552D01*
X009778Y003493D01*
X009778Y003276D01*
X009861Y003194D01*
X010026Y003194D01*
X010141Y003080D01*
X010141Y001501D01*
X010011Y001371D01*
X010011Y001249D01*
X009952Y001190D01*
X008881Y001190D01*
X008026Y002044D01*
X008026Y004450D01*
X007928Y004548D01*
X007774Y004548D01*
X007444Y004217D01*
X007446Y004219D02*
X008026Y004219D01*
X008026Y004142D02*
X007444Y004142D01*
X007444Y004065D02*
X008026Y004065D01*
X008026Y003987D02*
X007444Y003987D01*
X007444Y003910D02*
X008026Y003910D01*
X008026Y003833D02*
X007444Y003833D01*
X007444Y003756D02*
X008026Y003756D01*
X008026Y003679D02*
X007444Y003679D01*
X007444Y003601D02*
X008026Y003601D01*
X008026Y003524D02*
X007444Y003524D01*
X007444Y003447D02*
X008026Y003447D01*
X008026Y003370D02*
X007444Y003370D01*
X007444Y003292D02*
X008026Y003292D01*
X008026Y003215D02*
X007444Y003215D01*
X007372Y003138D02*
X008026Y003138D01*
X008026Y003061D02*
X007295Y003061D01*
X007218Y002983D02*
X008026Y002983D01*
X008026Y002906D02*
X007180Y002906D01*
X007180Y002829D02*
X008026Y002829D01*
X008026Y002752D02*
X007180Y002752D01*
X007180Y002674D02*
X008026Y002674D01*
X008026Y002597D02*
X007180Y002597D01*
X007180Y002520D02*
X008026Y002520D01*
X008026Y002443D02*
X007180Y002443D01*
X007180Y002365D02*
X008026Y002365D01*
X008026Y002288D02*
X007180Y002288D01*
X007180Y002211D02*
X008026Y002211D01*
X008026Y002134D02*
X007180Y002134D01*
X007180Y002056D02*
X008026Y002056D01*
X008091Y001979D02*
X007180Y001979D01*
X007180Y001902D02*
X008169Y001902D01*
X008246Y001825D02*
X007180Y001825D01*
X007229Y001748D02*
X008323Y001748D01*
X008400Y001670D02*
X007306Y001670D01*
X007383Y001593D02*
X008478Y001593D01*
X008555Y001516D02*
X007460Y001516D01*
X007538Y001439D02*
X008632Y001439D01*
X008709Y001361D02*
X007615Y001361D01*
X007692Y001284D02*
X008786Y001284D01*
X008864Y001207D02*
X007769Y001207D01*
X007846Y001130D02*
X010407Y001130D01*
X010484Y001207D02*
X009969Y001207D01*
X010011Y001284D02*
X010562Y001284D01*
X010639Y001361D02*
X010011Y001361D01*
X010078Y001439D02*
X010716Y001439D01*
X010793Y001516D02*
X010141Y001516D01*
X010141Y001593D02*
X010871Y001593D01*
X010885Y001670D02*
X010141Y001670D01*
X010141Y001748D02*
X010849Y001748D01*
X010849Y001825D02*
X010141Y001825D01*
X010141Y001902D02*
X010849Y001902D01*
X010849Y001979D02*
X010141Y001979D01*
X010141Y002056D02*
X010849Y002056D01*
X010849Y002134D02*
X010141Y002134D01*
X010141Y002211D02*
X010849Y002211D01*
X010849Y002288D02*
X010141Y002288D01*
X010141Y002365D02*
X010849Y002365D01*
X010849Y002443D02*
X010141Y002443D01*
X010141Y002520D02*
X010849Y002520D01*
X010849Y002597D02*
X010141Y002597D01*
X010141Y002674D02*
X010849Y002674D01*
X010849Y002752D02*
X010141Y002752D01*
X010141Y002829D02*
X010849Y002829D01*
X010849Y002906D02*
X010141Y002906D01*
X010141Y002983D02*
X010849Y002983D01*
X010849Y003061D02*
X010141Y003061D01*
X010082Y003138D02*
X010799Y003138D01*
X010722Y003215D02*
X009840Y003215D01*
X009778Y003292D02*
X010644Y003292D01*
X010567Y003370D02*
X009778Y003370D01*
X009778Y003447D02*
X010490Y003447D01*
X010413Y003524D02*
X009810Y003524D01*
X009598Y003524D02*
X008235Y003524D01*
X008235Y003528D02*
X008278Y003572D01*
X009593Y003572D01*
X009598Y003567D01*
X009598Y003224D01*
X009605Y003217D01*
X009605Y003099D01*
X009692Y003013D01*
X009881Y003001D01*
X009861Y002985D01*
X009904Y001654D01*
X009621Y001446D01*
X009196Y001674D01*
X009314Y001489D01*
X008853Y001950D01*
X008495Y001950D01*
X008235Y002209D01*
X008235Y003528D01*
X008235Y003447D02*
X009598Y003447D01*
X009598Y003370D02*
X008235Y003370D01*
X008235Y003292D02*
X009598Y003292D01*
X009605Y003215D02*
X008235Y003215D01*
X008235Y003138D02*
X009605Y003138D01*
X009644Y003061D02*
X008235Y003061D01*
X008235Y002983D02*
X009861Y002983D01*
X009864Y002906D02*
X008235Y002906D01*
X008235Y002829D02*
X009866Y002829D01*
X009869Y002752D02*
X008235Y002752D01*
X008235Y002674D02*
X009871Y002674D01*
X009874Y002597D02*
X008235Y002597D01*
X008235Y002520D02*
X009876Y002520D01*
X009879Y002443D02*
X008235Y002443D01*
X008235Y002365D02*
X009881Y002365D01*
X009884Y002288D02*
X008235Y002288D01*
X008235Y002211D02*
X009886Y002211D01*
X009889Y002134D02*
X008311Y002134D01*
X008388Y002056D02*
X009891Y002056D01*
X009894Y001979D02*
X008465Y001979D01*
X008901Y001902D02*
X009896Y001902D01*
X009899Y001825D02*
X008978Y001825D01*
X009055Y001748D02*
X009901Y001748D01*
X009904Y001670D02*
X009203Y001670D01*
X009198Y001670D02*
X009133Y001670D01*
X009210Y001593D02*
X009247Y001593D01*
X009287Y001516D02*
X009297Y001516D01*
X009347Y001593D02*
X009821Y001593D01*
X009716Y001516D02*
X009490Y001516D01*
X010330Y001052D02*
X007924Y001052D01*
X009247Y003505D02*
X009196Y003556D01*
X009200Y003556D01*
X009200Y003624D01*
X009205Y003624D01*
X009301Y003720D01*
X009301Y003740D01*
X009487Y003926D01*
X009652Y003761D01*
X009652Y003670D01*
X009487Y003505D01*
X009247Y003505D01*
X009228Y003524D02*
X009506Y003524D01*
X009584Y003601D02*
X009200Y003601D01*
X009260Y003679D02*
X009652Y003679D01*
X009652Y003756D02*
X009317Y003756D01*
X009399Y003756D02*
X010127Y003756D01*
X010127Y003719D02*
X010127Y004448D01*
X009399Y004448D01*
X009399Y003719D01*
X010127Y003719D01*
X010127Y003833D02*
X009399Y003833D01*
X009394Y003833D02*
X009580Y003833D01*
X009503Y003910D02*
X009471Y003910D01*
X009399Y003910D02*
X010127Y003910D01*
X010127Y003987D02*
X009399Y003987D01*
X009399Y004065D02*
X010127Y004065D01*
X010127Y004142D02*
X009399Y004142D01*
X009399Y004219D02*
X010127Y004219D01*
X010127Y004296D02*
X009399Y004296D01*
X009399Y004374D02*
X010127Y004374D01*
X009735Y004615D02*
X009601Y004654D01*
X009582Y004863D01*
X009533Y004928D01*
X009533Y004943D01*
X009489Y004988D01*
X009306Y005233D01*
X009306Y005426D01*
X009495Y005615D01*
X009708Y005615D01*
X009798Y005524D01*
X009798Y004946D01*
X009795Y004943D01*
X009795Y004806D01*
X009735Y004615D01*
X009756Y004683D02*
X009599Y004683D01*
X009591Y004760D02*
X009781Y004760D01*
X009795Y004837D02*
X009584Y004837D01*
X009543Y004914D02*
X009795Y004914D01*
X009798Y004992D02*
X009486Y004992D01*
X009428Y005069D02*
X009798Y005069D01*
X009798Y005146D02*
X009371Y005146D01*
X009313Y005223D02*
X009798Y005223D01*
X009798Y005301D02*
X009306Y005301D01*
X009306Y005378D02*
X009798Y005378D01*
X009798Y005455D02*
X009335Y005455D01*
X009412Y005532D02*
X009790Y005532D01*
X009713Y005610D02*
X009490Y005610D01*
X009511Y005914D02*
X009408Y005930D01*
X009314Y005989D01*
X009306Y005934D01*
X009239Y005934D01*
X009167Y006006D01*
X009167Y006011D01*
X009103Y006075D01*
X009098Y006075D01*
X008865Y006308D01*
X008869Y006308D01*
X009093Y006532D01*
X009215Y006532D01*
X009806Y005942D01*
X009511Y005914D01*
X009483Y005918D02*
X009557Y005918D01*
X009675Y006073D02*
X009105Y006073D01*
X009177Y005996D02*
X009752Y005996D01*
X009598Y006150D02*
X009023Y006150D01*
X008945Y006227D02*
X009520Y006227D01*
X009443Y006305D02*
X008868Y006305D01*
X008943Y006382D02*
X009366Y006382D01*
X009289Y006459D02*
X009020Y006459D01*
X007948Y004528D02*
X007755Y004528D01*
X007677Y004451D02*
X008025Y004451D01*
X008026Y004374D02*
X007600Y004374D01*
X007523Y004296D02*
X008026Y004296D01*
X011231Y008930D02*
X011231Y009650D01*
X011168Y009650D01*
D23*
X008743Y002481D03*
X007444Y002481D03*
D24*
X008400Y003430D03*
X008400Y003784D03*
X010515Y005328D03*
X010515Y005682D03*
X011058Y005682D03*
X011058Y005328D03*
X011971Y004741D03*
X011971Y004387D03*
X006278Y009808D03*
X006278Y010162D03*
X011869Y011024D03*
X011869Y011379D03*
D25*
X011369Y004371D03*
X011015Y004371D03*
X011168Y003182D03*
X011523Y003182D03*
X011530Y002698D03*
X011176Y002698D03*
X008306Y004363D03*
X007952Y004363D03*
D26*
X012137Y005658D03*
X012137Y006957D03*
D27*
X007239Y009627D03*
D28*
X008239Y009627D03*
X009239Y009627D03*
X010239Y009627D03*
X010239Y012627D03*
X009239Y012627D03*
X008239Y012627D03*
X007239Y012627D03*
D29*
X012582Y011241D03*
X012582Y010493D03*
D30*
X012566Y010509D01*
X011861Y010509D01*
X011916Y010454D01*
X011916Y009650D01*
X011168Y009650D02*
X010696Y010123D01*
X007739Y010123D01*
X007243Y009627D01*
X007239Y009627D01*
X006278Y009808D02*
X006219Y009749D01*
X005700Y009749D01*
X005700Y008040D01*
X005353Y007694D01*
X005353Y006884D01*
X005357Y006880D01*
X005058Y006896D02*
X005042Y006880D01*
X005042Y008296D01*
X005318Y008572D01*
X005318Y009670D01*
X004845Y010143D01*
X004845Y010398D02*
X004857Y010410D01*
X005125Y010410D01*
X005133Y010418D01*
X005700Y010418D01*
X005715Y010418D01*
X006487Y011190D01*
X006487Y011843D01*
X006318Y012013D01*
X005995Y012013D01*
X005987Y012020D01*
X005995Y012513D02*
X005991Y012517D01*
X005467Y012517D01*
X005282Y012331D01*
X005282Y011887D01*
X004834Y012052D02*
X004834Y010666D01*
X004845Y010654D01*
X004834Y010410D02*
X004845Y010398D01*
X004479Y010639D02*
X004479Y011272D01*
X004239Y011513D01*
X003869Y011513D01*
X004239Y011513D02*
X004471Y011745D01*
X004834Y012052D02*
X004373Y012513D01*
X003869Y012513D01*
X003645Y012288D01*
X003420Y012288D01*
X003097Y011965D01*
X002873Y011965D01*
X002916Y012552D02*
X002920Y012556D01*
X002920Y013091D01*
X002247Y012552D02*
X002247Y012009D01*
X002204Y011965D01*
X001948Y011418D02*
X001963Y011402D01*
X002479Y011402D01*
X003149Y011402D02*
X003149Y011009D01*
X002971Y010831D01*
X003286Y010517D01*
X003286Y010320D01*
X002672Y010324D02*
X002672Y010461D01*
X002302Y010831D01*
X002046Y010576D01*
X002046Y010269D01*
X001574Y010363D02*
X001574Y009954D01*
X002089Y009438D01*
X002089Y008871D01*
X003117Y007843D01*
X003834Y007843D01*
X003652Y008024D01*
X003652Y008631D01*
X002983Y008631D02*
X002538Y009076D01*
X002495Y009076D01*
X002672Y009253D01*
X002672Y009654D01*
X003282Y009654D01*
X003286Y009650D01*
X003971Y009741D02*
X003971Y010143D01*
X003979Y010398D02*
X004239Y010398D01*
X004479Y010639D01*
X003979Y010654D02*
X003979Y010788D01*
X003723Y011044D01*
X003149Y011402D02*
X003149Y011587D01*
X003574Y012013D01*
X003869Y012013D01*
X001574Y010363D02*
X001129Y010808D01*
X001129Y011127D01*
X001129Y010127D02*
X001865Y009391D01*
X001865Y008757D01*
X003023Y007599D01*
X003727Y007599D01*
X004097Y007229D01*
X004097Y006880D01*
X003782Y006880D02*
X003782Y007206D01*
X003645Y007343D01*
X002912Y007343D01*
X001129Y009127D01*
X002059Y006880D02*
X003467Y006880D01*
X002880Y006292D02*
X002471Y006292D01*
X001129Y004950D01*
X001129Y005950D02*
X002059Y006880D01*
X002896Y005993D02*
X002880Y005977D01*
X002907Y005950D01*
X003904Y005985D01*
X004121Y005686D02*
X004121Y005473D01*
X004318Y005276D01*
X004121Y005686D02*
X003467Y005032D01*
X002880Y005032D01*
X002884Y004721D02*
X005054Y004717D01*
X005582Y004721D01*
X005672Y004812D01*
X005672Y004607D01*
X005664Y004599D01*
X005861Y004402D01*
X006260Y004402D01*
X006260Y004087D02*
X006260Y003010D01*
X005802Y002580D01*
X005432Y002347D02*
X005432Y002957D01*
X005672Y003198D01*
X005672Y003500D01*
X005357Y003500D02*
X005357Y003162D01*
X005050Y002855D01*
X005050Y002316D01*
X005019Y002304D01*
X004601Y002300D02*
X004601Y002706D01*
X005042Y003146D01*
X005042Y003500D01*
X004727Y003500D02*
X004727Y003107D01*
X004259Y002639D01*
X004259Y002552D01*
X003794Y002572D02*
X004412Y003190D01*
X004412Y003500D01*
X004097Y003500D02*
X004097Y004005D01*
X003786Y004316D01*
X002880Y004402D02*
X002582Y004402D01*
X002456Y004276D01*
X002456Y003898D01*
X002684Y003670D01*
X002684Y003320D01*
X002979Y003024D01*
X002979Y001662D01*
X003282Y001359D01*
X004460Y001359D01*
X004546Y001272D01*
X005310Y001276D02*
X005404Y001371D01*
X005940Y001371D01*
X005523Y001788D01*
X003377Y001788D01*
X003200Y001965D01*
X003200Y003076D01*
X002900Y003375D01*
X002900Y004067D01*
X002880Y004087D01*
X002880Y004717D02*
X002876Y004721D01*
X002578Y004721D01*
X002381Y004918D01*
X002381Y004981D01*
X002381Y005091D01*
X002637Y005347D01*
X002880Y005347D01*
X002880Y005662D02*
X002903Y005686D01*
X004121Y005686D01*
X004688Y005686D01*
X005026Y005347D01*
X006260Y005347D01*
X006260Y005032D02*
X005893Y005032D01*
X005672Y004812D01*
X006260Y005977D02*
X006327Y006044D01*
X006641Y006044D01*
X009239Y008643D01*
X009239Y009627D01*
X010239Y009627D02*
X010239Y008926D01*
X010243Y008922D01*
X007160Y005839D01*
X007160Y003926D01*
X006515Y003280D01*
X006515Y002812D01*
X005696Y001993D01*
X003786Y001993D01*
X003467Y002312D01*
X003467Y003500D01*
X002408Y002946D02*
X002397Y002934D01*
X001735Y002934D01*
X002880Y004717D02*
X002884Y004721D01*
X004412Y006880D02*
X004412Y007351D01*
X003920Y007843D01*
X003834Y007843D01*
X004011Y008064D02*
X004711Y007363D01*
X004711Y006896D01*
X004727Y006880D01*
X004011Y008064D02*
X004011Y009709D01*
X003971Y009741D01*
X004652Y009682D02*
X004680Y009709D01*
X004652Y009682D02*
X004652Y009072D01*
X004649Y009068D01*
X004649Y008572D01*
X006278Y010162D02*
X006767Y010650D01*
X006767Y011993D01*
X006582Y012178D01*
X006582Y012611D01*
X007223Y013253D01*
X009613Y013253D01*
X010239Y012627D01*
X009700Y012166D02*
X011404Y012166D01*
X011881Y011690D01*
X012145Y011690D01*
X012582Y011253D01*
X012582Y011241D01*
X011869Y011379D02*
X011558Y011379D01*
X011200Y011737D01*
X008129Y011737D01*
X007239Y012627D01*
X007353Y011103D02*
X007389Y011068D01*
X011200Y011068D01*
X011869Y011024D02*
X011869Y010517D01*
X011861Y010509D01*
X009700Y012166D02*
X009239Y012627D01*
X012137Y006957D02*
X012798Y006296D01*
X012798Y003257D01*
X012239Y002698D01*
X011530Y002698D01*
X011176Y002698D02*
X011168Y002706D01*
X011168Y003182D01*
X011107Y003182D01*
X010501Y003788D01*
X010491Y003975D02*
X010058Y003975D01*
X009964Y003882D01*
X009561Y003882D01*
X009467Y003975D01*
X009034Y003975D01*
X009024Y003788D02*
X009017Y003780D01*
X008400Y003784D01*
X008400Y003430D02*
X008861Y002969D01*
X009369Y002969D01*
X009369Y003404D02*
X009566Y003404D01*
X009561Y003409D01*
X009561Y003882D01*
X009467Y004192D02*
X009561Y004285D01*
X009467Y004192D02*
X009034Y004192D01*
X009024Y004379D02*
X008322Y004379D01*
X008306Y004363D01*
X007952Y004363D02*
X007952Y003135D01*
X007444Y002481D01*
X006810Y002587D02*
X006609Y002457D01*
X006609Y001371D01*
X009763Y003404D02*
X009960Y003404D01*
X010156Y003404D01*
X010058Y004192D02*
X009964Y004285D01*
X010058Y004192D02*
X010491Y004192D01*
X010501Y004379D02*
X011007Y004379D01*
X011015Y004371D01*
X011369Y004371D02*
X011369Y003891D01*
X011247Y003769D01*
X011523Y003182D02*
X012101Y003182D01*
X012113Y003194D01*
X012113Y003650D01*
X011995Y003769D01*
X011971Y003792D01*
X011971Y004387D01*
X011971Y004741D02*
X010178Y004741D01*
X010156Y004763D01*
X009960Y004763D02*
X009960Y005040D01*
X010247Y005328D01*
X010515Y005328D01*
X011058Y005328D01*
X011058Y005682D02*
X011058Y006131D01*
X011046Y006131D01*
X010515Y006115D02*
X010515Y005682D01*
X009550Y005670D02*
X009566Y005493D01*
X009566Y004763D01*
X009763Y004763D01*
X009369Y004763D02*
X008810Y005322D01*
X008802Y005670D01*
D31*
X009369Y003404D02*
X009369Y002969D01*
X009668Y002670D01*
X009668Y001709D01*
X009574Y001615D01*
X009574Y001725D01*
X008743Y002481D01*
X010156Y003404D02*
X010416Y003144D01*
X010416Y002670D01*
X010416Y001772D01*
X010574Y001615D01*
X010034Y001076D01*
X008109Y001076D01*
X007444Y001741D01*
X007444Y002481D01*
D32*
X011046Y006131D03*
X011231Y008930D03*
X007353Y011103D03*
X005282Y011887D03*
X003723Y011044D03*
X004652Y009072D03*
X002495Y009076D03*
X001995Y003910D03*
D33*
X001680Y003505D01*
X001129Y003950D01*
X001349Y003950D01*
X002381Y004981D01*
X001129Y003950D02*
X001129Y003076D01*
X000987Y002934D01*
X001735Y002934D02*
X001735Y002772D01*
X002613Y001359D01*
X008952Y006288D02*
X009298Y006288D01*
X009554Y006032D01*
X009554Y005674D01*
X009550Y005670D01*
X012137Y005658D02*
X012137Y005544D01*
X012436Y005245D01*
X012436Y003973D01*
X012113Y003650D01*
X012137Y006957D02*
X011231Y007863D01*
X011231Y008930D01*
X001129Y008127D02*
X001129Y006950D01*
D34*
X004318Y005276D03*
X002408Y002946D03*
X006810Y002587D03*
X010515Y006115D03*
X012113Y003194D03*
X011861Y010509D03*
X004471Y011745D03*
X002920Y013091D03*
X001948Y011418D03*
M02*
