G75*
G70*
%OFA0B0*%
%FSLAX24Y24*%
%IPPOS*%
%LPD*%
%AMOC8*
5,1,8,0,0,1.08239X$1,22.5*
%
%ADD10C,0.1320*%
%ADD11R,0.0560X0.0280*%
%ADD12R,0.0280X0.0560*%
%ADD13R,0.0454X0.0493*%
%ADD14R,0.0572X0.0651*%
%ADD15C,0.0456*%
%ADD16R,0.0414X0.0217*%
%ADD17R,0.0493X0.0454*%
%ADD18R,0.0690X0.0277*%
%ADD19C,0.0586*%
%ADD20C,0.0170*%
%ADD21R,0.0414X0.0139*%
%ADD22C,0.0380*%
%ADD23R,0.0493X0.0926*%
%ADD24R,0.0296X0.0217*%
%ADD25R,0.0217X0.0296*%
%ADD26R,0.0926X0.0493*%
%ADD27R,0.0535X0.0535*%
%ADD28C,0.0535*%
%ADD29R,0.0651X0.0572*%
%ADD30R,0.0456X0.0456*%
%ADD31OC8,0.0456*%
D10*
X001164Y001650D03*
X012188Y001650D03*
X012188Y012674D03*
X001164Y012674D03*
D11*
X002880Y006292D03*
X002880Y005977D03*
X002880Y005662D03*
X002880Y005347D03*
X002880Y005032D03*
X002880Y004717D03*
X002880Y004402D03*
X002880Y004087D03*
X006260Y004087D03*
X006260Y004402D03*
X006260Y004717D03*
X006260Y005032D03*
X006260Y005347D03*
X006260Y005662D03*
X006260Y005977D03*
X006260Y006292D03*
D12*
X005672Y006880D03*
X005357Y006880D03*
X005042Y006880D03*
X004727Y006880D03*
X004412Y006880D03*
X004097Y006880D03*
X003782Y006880D03*
X003467Y006880D03*
X003467Y003500D03*
X003782Y003500D03*
X004097Y003500D03*
X004412Y003500D03*
X004727Y003500D03*
X005042Y003500D03*
X005357Y003500D03*
X005672Y003500D03*
D13*
X005940Y001371D03*
X006609Y001371D03*
X003282Y001359D03*
X002613Y001359D03*
X002983Y008631D03*
X003652Y008631D03*
X004649Y008572D03*
X005318Y008572D03*
X004680Y009709D03*
X004011Y009709D03*
X002971Y010831D03*
X003149Y011402D03*
X002479Y011402D03*
X002302Y010831D03*
X002204Y011965D03*
X002247Y012552D03*
X002916Y012552D03*
X002873Y011965D03*
D14*
X008802Y005670D03*
X009550Y005670D03*
X011247Y003769D03*
X011995Y003769D03*
X010416Y002670D03*
X009668Y002670D03*
X001735Y002934D03*
X000987Y002934D03*
X011168Y009650D03*
X011916Y009650D03*
D15*
X008952Y006288D03*
X007145Y008595D03*
X006145Y008595D03*
X002046Y010269D03*
X004546Y001272D03*
X005310Y001276D03*
D16*
X004845Y010143D03*
X004845Y010398D03*
X004845Y010654D03*
X003979Y010654D03*
X003979Y010398D03*
X003971Y010143D03*
D17*
X003286Y010320D03*
X002672Y010324D03*
X002672Y009654D03*
X003286Y009650D03*
X005700Y009749D03*
X005700Y010418D03*
X011200Y011068D03*
X011200Y011737D03*
D18*
X005995Y011513D03*
X005995Y012013D03*
X005995Y012513D03*
X005995Y013013D03*
X003869Y013013D03*
X003869Y012513D03*
X003869Y012013D03*
X003869Y011513D03*
D19*
X001129Y011127D03*
X001129Y010127D03*
X001129Y009127D03*
X001129Y008127D03*
X001129Y006950D03*
X001129Y005950D03*
X001129Y004950D03*
X001129Y003950D03*
X009574Y001615D03*
X010574Y001615D03*
X014101Y003804D03*
X014101Y004804D03*
X014101Y005804D03*
X014101Y006804D03*
X014101Y007804D03*
X014101Y008804D03*
X014101Y009804D03*
X014101Y010804D03*
D20*
X010156Y004875D02*
X010156Y004651D01*
X009960Y004651D02*
X009960Y004875D01*
X009763Y004875D02*
X009763Y004651D01*
X009566Y004651D02*
X009566Y004875D01*
X009369Y004875D02*
X009369Y004651D01*
X009136Y004379D02*
X008912Y004379D01*
X008912Y003788D02*
X009136Y003788D01*
X009369Y003516D02*
X009369Y003292D01*
X009566Y003292D02*
X009566Y003516D01*
X009763Y003516D02*
X009763Y003292D01*
X009960Y003292D02*
X009960Y003516D01*
X010156Y003516D02*
X010156Y003292D01*
X010389Y003788D02*
X010613Y003788D01*
X010613Y004379D02*
X010389Y004379D01*
D21*
X010491Y004192D03*
X010491Y003975D03*
X009034Y003975D03*
X009034Y004192D03*
D22*
X009561Y004285D03*
X009561Y003882D03*
X009964Y003882D03*
X009964Y004285D03*
X005802Y002580D03*
X005432Y002347D03*
X005019Y002304D03*
X004601Y002300D03*
X004259Y002552D03*
X003794Y002572D03*
X003786Y004316D03*
X003904Y005985D03*
D23*
X007444Y002481D03*
X008743Y002481D03*
D24*
X008400Y003430D03*
X008400Y003784D03*
X010515Y005328D03*
X010515Y005682D03*
X011058Y005682D03*
X011058Y005328D03*
X011971Y004741D03*
X011971Y004387D03*
X006278Y009808D03*
X006278Y010162D03*
X011869Y011024D03*
X011869Y011379D03*
D25*
X011369Y004371D03*
X011015Y004371D03*
X011168Y003182D03*
X011523Y003182D03*
X011530Y002698D03*
X011176Y002698D03*
X008306Y004363D03*
X007952Y004363D03*
D26*
X012137Y005658D03*
X012137Y006957D03*
D27*
X007239Y009627D03*
D28*
X008239Y009627D03*
X009239Y009627D03*
X010239Y009627D03*
X010239Y012627D03*
X009239Y012627D03*
X008239Y012627D03*
X007239Y012627D03*
D29*
X012582Y011241D03*
X012582Y010493D03*
D30*
X011231Y008930D03*
X011046Y006131D03*
X007353Y011103D03*
X005282Y011887D03*
X003723Y011044D03*
X004652Y009072D03*
X002495Y009076D03*
X001995Y003910D03*
D31*
X002408Y002946D03*
X004318Y005276D03*
X006810Y002587D03*
X010515Y006115D03*
X012113Y003194D03*
X011861Y010509D03*
X004471Y011745D03*
X002920Y013091D03*
X001948Y011418D03*
M02*
