G75*
G70*
%OFA0B0*%
%FSLAX24Y24*%
%IPPOS*%
%LPD*%
%AMOC8*
5,1,8,0,0,1.08239X$1,22.5*
%
%ADD10C,0.0550*%
%ADD11C,0.0260*%
%ADD12C,0.0050*%
D10*
X003600Y001100D03*
X003600Y002100D03*
X003600Y003100D03*
X003600Y004100D03*
D11*
X009350Y000950D03*
X009700Y000950D03*
X010050Y000950D03*
X010400Y000950D03*
X010750Y000950D03*
X011100Y000950D03*
X011450Y000950D03*
X011800Y000950D03*
X046850Y000950D03*
X047200Y000950D03*
X047550Y000950D03*
X047900Y000950D03*
X048250Y000950D03*
X048600Y000950D03*
X048950Y000950D03*
X049300Y000950D03*
X084350Y000950D03*
X084700Y000950D03*
X085050Y000950D03*
X085400Y000950D03*
X085750Y000950D03*
X086100Y000950D03*
X086450Y000950D03*
X086800Y000950D03*
X121850Y000950D03*
X122200Y000950D03*
X122550Y000950D03*
X122900Y000950D03*
X123250Y000950D03*
X123600Y000950D03*
X123950Y000950D03*
X124300Y000950D03*
X125300Y002350D03*
X126100Y002350D03*
X126900Y002350D03*
X132800Y002350D03*
X133600Y002350D03*
X134400Y002350D03*
X140300Y002350D03*
X141100Y002350D03*
X141900Y002350D03*
X147800Y002350D03*
X148600Y002350D03*
X149400Y002350D03*
X155300Y002350D03*
X156100Y002350D03*
X156900Y002350D03*
X121450Y002600D03*
X119900Y002600D03*
X119400Y002350D03*
X118600Y002350D03*
X117800Y002350D03*
X111900Y002350D03*
X111100Y002350D03*
X110300Y002350D03*
X104400Y002350D03*
X103600Y002350D03*
X102800Y002350D03*
X096900Y002350D03*
X096100Y002350D03*
X095300Y002350D03*
X089400Y002350D03*
X088600Y002350D03*
X087800Y002350D03*
X081900Y002350D03*
X081100Y002350D03*
X080300Y002350D03*
X074400Y002350D03*
X073600Y002350D03*
X072800Y002350D03*
X066900Y002350D03*
X066100Y002350D03*
X065300Y002350D03*
X059400Y002350D03*
X058600Y002350D03*
X057800Y002350D03*
X051900Y002350D03*
X051100Y002350D03*
X050300Y002350D03*
X044400Y002350D03*
X043600Y002350D03*
X042800Y002350D03*
X036900Y002350D03*
X036100Y002350D03*
X035300Y002350D03*
X029400Y002350D03*
X028600Y002350D03*
X027800Y002350D03*
X021900Y002350D03*
X021100Y002350D03*
X020300Y002350D03*
X014400Y002350D03*
X013600Y002350D03*
X012800Y002350D03*
X005900Y002350D03*
X008950Y002600D03*
X011050Y002600D03*
X010600Y002850D03*
X008700Y002850D03*
X005900Y003250D03*
X009950Y004250D03*
X010300Y004250D03*
X010650Y004250D03*
X011000Y004250D03*
X011350Y004250D03*
X011700Y004250D03*
X012050Y004250D03*
X047450Y004250D03*
X047800Y004250D03*
X048150Y004250D03*
X048500Y004250D03*
X048850Y004250D03*
X049200Y004250D03*
X049550Y004250D03*
X047750Y003150D03*
X046200Y002950D03*
X045400Y002950D03*
X047750Y002750D03*
X046450Y002600D03*
X044900Y002600D03*
X082400Y002600D03*
X083950Y002600D03*
X085850Y002600D03*
X085350Y003000D03*
X083700Y003000D03*
X082900Y003000D03*
X120350Y003000D03*
X121200Y003000D03*
X122450Y004250D03*
X122800Y004250D03*
X123150Y004250D03*
X123500Y004250D03*
X123850Y004250D03*
X124200Y004250D03*
X124550Y004250D03*
X087050Y004250D03*
X086700Y004250D03*
X086350Y004250D03*
X086000Y004250D03*
X085650Y004250D03*
X085300Y004250D03*
X084950Y004250D03*
D12*
X086600Y002600D01*
X104250Y002600D01*
X104400Y002450D01*
X104400Y002350D01*
X103600Y002350D02*
X103600Y001800D01*
X103300Y001500D01*
X087350Y001500D01*
X086800Y000950D01*
X086450Y000950D02*
X087100Y001600D01*
X102600Y001600D01*
X102800Y001800D01*
X102800Y002350D01*
X096900Y002350D02*
X096900Y001900D01*
X096700Y001700D01*
X086850Y001700D01*
X086100Y000950D01*
X085750Y000950D02*
X086600Y001800D01*
X095850Y001800D01*
X096100Y002050D01*
X096100Y002350D01*
X095300Y002350D02*
X095300Y002100D01*
X095100Y001900D01*
X086350Y001900D01*
X085400Y000950D01*
X085050Y000950D02*
X086100Y002000D01*
X089300Y002000D01*
X089400Y002100D01*
X089400Y002350D01*
X088600Y002350D02*
X088600Y002250D01*
X088450Y002100D01*
X085850Y002100D01*
X084700Y000950D01*
X084350Y000950D02*
X085750Y002350D01*
X087800Y002350D01*
X081900Y002350D02*
X081900Y002950D01*
X081650Y003200D01*
X050600Y003200D01*
X049550Y004250D01*
X049200Y004250D02*
X050350Y003100D01*
X080950Y003100D01*
X081100Y002950D01*
X081100Y002350D01*
X080300Y002350D02*
X080300Y002850D01*
X080150Y003000D01*
X050100Y003000D01*
X048850Y004250D01*
X048500Y004250D02*
X049850Y002900D01*
X074200Y002900D01*
X074400Y002700D01*
X074400Y002350D01*
X073600Y002350D02*
X073600Y002650D01*
X073450Y002800D01*
X049600Y002800D01*
X048150Y004250D01*
X047800Y004250D02*
X049350Y002700D01*
X072650Y002700D01*
X072800Y002550D01*
X072800Y002350D01*
X066900Y002350D02*
X066900Y002450D01*
X066750Y002600D01*
X049100Y002600D01*
X047450Y004250D01*
X044400Y002950D02*
X044150Y003200D01*
X013100Y003200D01*
X012050Y004250D01*
X011700Y004250D02*
X012850Y003100D01*
X043500Y003100D01*
X043600Y003000D01*
X043600Y002350D01*
X042800Y002350D02*
X042800Y002850D01*
X042650Y003000D01*
X012600Y003000D01*
X011350Y004250D01*
X011000Y004250D02*
X012350Y002900D01*
X036700Y002900D01*
X036900Y002700D01*
X036900Y002350D01*
X036100Y002350D02*
X036100Y002600D01*
X035900Y002800D01*
X012100Y002800D01*
X010650Y004250D01*
X010300Y004250D02*
X011850Y002700D01*
X035150Y002700D01*
X035300Y002550D01*
X035300Y002350D01*
X029400Y002350D02*
X029400Y002500D01*
X029300Y002600D01*
X011600Y002600D01*
X009950Y004250D01*
X005900Y003250D02*
X005900Y002350D01*
X009350Y000950D02*
X010750Y002350D01*
X012800Y002350D01*
X013600Y002350D02*
X013600Y002200D01*
X013500Y002100D01*
X010850Y002100D01*
X009700Y000950D01*
X010050Y000950D02*
X011100Y002000D01*
X014150Y002000D01*
X014400Y002250D01*
X014400Y002350D01*
X020300Y002350D02*
X020300Y002050D01*
X020150Y001900D01*
X011350Y001900D01*
X010400Y000950D01*
X010750Y000950D02*
X011600Y001800D01*
X020850Y001800D01*
X021100Y002050D01*
X021100Y002350D01*
X021900Y002350D02*
X021900Y002100D01*
X021500Y001700D01*
X011850Y001700D01*
X011100Y000950D01*
X011450Y000950D02*
X012100Y001600D01*
X027600Y001600D01*
X027800Y001800D01*
X027800Y002350D01*
X028600Y002350D02*
X028600Y001950D01*
X028150Y001500D01*
X012350Y001500D01*
X011800Y000950D01*
X046850Y000950D02*
X048250Y002350D01*
X050300Y002350D01*
X051100Y002350D02*
X051100Y002250D01*
X050950Y002100D01*
X048350Y002100D01*
X047200Y000950D01*
X047550Y000950D02*
X048600Y002000D01*
X051800Y002000D01*
X051900Y002100D01*
X051900Y002350D01*
X057800Y002350D02*
X057800Y002000D01*
X057700Y001900D01*
X048850Y001900D01*
X047900Y000950D01*
X048250Y000950D02*
X049100Y001800D01*
X058400Y001800D01*
X058600Y002000D01*
X058600Y002350D01*
X059400Y002350D02*
X059400Y001900D01*
X059200Y001700D01*
X049350Y001700D01*
X048600Y000950D01*
X048950Y000950D02*
X049600Y001600D01*
X065100Y001600D01*
X065300Y001800D01*
X065300Y002350D01*
X066100Y002350D02*
X066100Y001750D01*
X065850Y001500D01*
X049850Y001500D01*
X049300Y000950D01*
X044400Y002350D02*
X044400Y002950D01*
X045400Y002950D02*
X046200Y002950D01*
X047300Y002950D01*
X047500Y003150D01*
X047750Y003150D01*
X047750Y002750D02*
X047600Y002600D01*
X046450Y002600D01*
X044900Y002600D01*
X011050Y002600D02*
X008950Y002600D01*
X008700Y002850D02*
X010600Y002850D01*
X082400Y002600D02*
X083950Y002600D01*
X085850Y002600D01*
X086850Y002700D02*
X085300Y004250D01*
X085650Y004250D02*
X087100Y002800D01*
X110950Y002800D01*
X111100Y002650D01*
X111100Y002350D01*
X111900Y002350D02*
X111900Y002650D01*
X111650Y002900D01*
X087350Y002900D01*
X086000Y004250D01*
X086350Y004250D02*
X087600Y003000D01*
X117550Y003000D01*
X117800Y002750D01*
X117800Y002350D01*
X118600Y002350D02*
X118600Y002850D01*
X118350Y003100D01*
X087850Y003100D01*
X086700Y004250D01*
X087050Y004250D02*
X088100Y003200D01*
X119100Y003200D01*
X119400Y002900D01*
X119400Y002350D01*
X121850Y000950D02*
X123250Y002350D01*
X125300Y002350D01*
X125850Y002100D02*
X126100Y002350D01*
X126900Y002350D02*
X126900Y002100D01*
X126800Y002000D01*
X123600Y002000D01*
X122550Y000950D01*
X122900Y000950D02*
X123850Y001900D01*
X132700Y001900D01*
X132800Y002000D01*
X132800Y002350D01*
X133600Y002350D02*
X133600Y002000D01*
X133400Y001800D01*
X124100Y001800D01*
X123250Y000950D01*
X123600Y000950D02*
X124350Y001700D01*
X134300Y001700D01*
X134400Y001800D01*
X134400Y002350D01*
X140300Y002350D02*
X140300Y001800D01*
X140100Y001600D01*
X124600Y001600D01*
X123950Y000950D01*
X124300Y000950D02*
X124850Y001500D01*
X140900Y001500D01*
X141100Y001700D01*
X141100Y002350D01*
X141900Y002350D02*
X141900Y002450D01*
X141750Y002600D01*
X124100Y002600D01*
X122450Y004250D01*
X122800Y004250D02*
X124350Y002700D01*
X147650Y002700D01*
X147800Y002550D01*
X147800Y002350D01*
X148600Y002350D02*
X148600Y002600D01*
X148400Y002800D01*
X124600Y002800D01*
X123150Y004250D01*
X123500Y004250D02*
X124850Y002900D01*
X149200Y002900D01*
X149400Y002700D01*
X149400Y002350D01*
X155300Y002350D02*
X155300Y002850D01*
X155150Y003000D01*
X125100Y003000D01*
X123850Y004250D01*
X124200Y004250D02*
X125350Y003100D01*
X155950Y003100D01*
X156100Y002950D01*
X156100Y002350D01*
X156900Y002350D02*
X156900Y002950D01*
X156650Y003200D01*
X125600Y003200D01*
X124550Y004250D01*
X121200Y003000D02*
X120350Y003000D01*
X110300Y002600D02*
X110200Y002700D01*
X086850Y002700D01*
X085350Y003000D02*
X083700Y003000D01*
X082900Y003000D01*
X110300Y002600D02*
X110300Y002350D01*
X119900Y002600D02*
X121450Y002600D01*
X122200Y000950D02*
X123350Y002100D01*
X125850Y002100D01*
M02*
