%
M48
M72
T01C0.0100
T02C0.0350
%
T01
X9350Y950
X9700Y950
X10050Y950
X10400Y950
X10750Y950
X11100Y950
X11450Y950
X11800Y950
X46850Y950
X47200Y950
X47550Y950
X47900Y950
X48250Y950
X48600Y950
X48950Y950
X49300Y950
X84350Y950
X84700Y950
X85050Y950
X85400Y950
X85750Y950
X86100Y950
X86450Y950
X86800Y950
X121850Y950
X122200Y950
X122550Y950
X122900Y950
X123250Y950
X123600Y950
X123950Y950
X124300Y950
X125300Y2350
X126100Y2350
X126900Y2350
X132800Y2350
X133600Y2350
X134400Y2350
X140300Y2350
X141100Y2350
X141900Y2350
X147800Y2350
X148600Y2350
X149400Y2350
X155300Y2350
X156100Y2350
X156900Y2350
X121450Y2600
X119900Y2600
X119400Y2350
X118600Y2350
X117800Y2350
X111900Y2350
X111100Y2350
X110300Y2350
X104400Y2350
X103600Y2350
X102800Y2350
X96900Y2350
X96100Y2350
X95300Y2350
X89400Y2350
X88600Y2350
X87800Y2350
X81900Y2350
X81100Y2350
X80300Y2350
X74400Y2350
X73600Y2350
X72800Y2350
X66900Y2350
X66100Y2350
X65300Y2350
X59400Y2350
X58600Y2350
X57800Y2350
X51900Y2350
X51100Y2350
X50300Y2350
X44400Y2350
X43600Y2350
X42800Y2350
X36900Y2350
X36100Y2350
X35300Y2350
X29400Y2350
X28600Y2350
X27800Y2350
X21900Y2350
X21100Y2350
X20300Y2350
X14400Y2350
X13600Y2350
X12800Y2350
X5900Y2350
X8950Y2600
X11050Y2600
X10600Y2850
X8700Y2850
X5900Y3250
X9950Y4250
X10300Y4250
X10650Y4250
X11000Y4250
X11350Y4250
X11700Y4250
X12050Y4250
X47450Y4250
X47800Y4250
X48150Y4250
X48500Y4250
X48850Y4250
X49200Y4250
X49550Y4250
X47750Y3150
X46200Y2950
X45400Y2950
X47750Y2750
X46450Y2600
X44900Y2600
X82400Y2600
X83950Y2600
X85850Y2600
X85350Y3000
X83700Y3000
X82900Y3000
X120350Y3000
X121200Y3000
X122450Y4250
X122800Y4250
X123150Y4250
X123500Y4250
X123850Y4250
X124200Y4250
X124550Y4250
X87050Y4250
X86700Y4250
X86350Y4250
X86000Y4250
X85650Y4250
X85300Y4250
X84950Y4250
T02
X3600Y4100
X3600Y3100
X3600Y2100
X3600Y1100
M30
