G75*
G70*
%OFA0B0*%
%FSLAX24Y24*%
%IPPOS*%
%LPD*%
%AMOC8*
5,1,8,0,0,1.08239X$1,22.5*
%
%ADD10R,0.0138X0.0472*%
%ADD11R,0.0630X0.1181*%
%ADD12R,0.0236X0.0157*%
%ADD13C,0.0550*%
%ADD14C,0.0050*%
%ADD15C,0.0500*%
%ADD16C,0.0260*%
D10*
X008437Y001458D03*
X008693Y001458D03*
X008948Y001458D03*
X009204Y001458D03*
X009460Y001458D03*
X009716Y001458D03*
X009972Y001458D03*
X010228Y001458D03*
X010484Y001458D03*
X010740Y001458D03*
X010996Y001458D03*
X011252Y001458D03*
X011507Y001458D03*
X011763Y001458D03*
X045937Y001458D03*
X046193Y001458D03*
X046448Y001458D03*
X046704Y001458D03*
X046960Y001458D03*
X047216Y001458D03*
X047472Y001458D03*
X047728Y001458D03*
X047984Y001458D03*
X048240Y001458D03*
X048496Y001458D03*
X048752Y001458D03*
X049007Y001458D03*
X049263Y001458D03*
X083437Y001458D03*
X083693Y001458D03*
X083948Y001458D03*
X084204Y001458D03*
X084460Y001458D03*
X084716Y001458D03*
X084972Y001458D03*
X085228Y001458D03*
X085484Y001458D03*
X085740Y001458D03*
X085996Y001458D03*
X086252Y001458D03*
X086507Y001458D03*
X086763Y001458D03*
X120937Y001458D03*
X121193Y001458D03*
X121448Y001458D03*
X121704Y001458D03*
X121960Y001458D03*
X122216Y001458D03*
X122472Y001458D03*
X122728Y001458D03*
X122984Y001458D03*
X123240Y001458D03*
X123496Y001458D03*
X123752Y001458D03*
X124007Y001458D03*
X124263Y001458D03*
X124263Y003742D03*
X124007Y003742D03*
X123752Y003742D03*
X123496Y003742D03*
X123240Y003742D03*
X122984Y003742D03*
X122728Y003742D03*
X122472Y003742D03*
X122216Y003742D03*
X121960Y003742D03*
X121704Y003742D03*
X121448Y003742D03*
X121193Y003742D03*
X120937Y003742D03*
X086763Y003742D03*
X086507Y003742D03*
X086252Y003742D03*
X085996Y003742D03*
X085740Y003742D03*
X085484Y003742D03*
X085228Y003742D03*
X084972Y003742D03*
X084716Y003742D03*
X084460Y003742D03*
X084204Y003742D03*
X083948Y003742D03*
X083693Y003742D03*
X083437Y003742D03*
X049263Y003742D03*
X049007Y003742D03*
X048752Y003742D03*
X048496Y003742D03*
X048240Y003742D03*
X047984Y003742D03*
X047728Y003742D03*
X047472Y003742D03*
X047216Y003742D03*
X046960Y003742D03*
X046704Y003742D03*
X046448Y003742D03*
X046193Y003742D03*
X045937Y003742D03*
X011763Y003742D03*
X011507Y003742D03*
X011252Y003742D03*
X010996Y003742D03*
X010740Y003742D03*
X010484Y003742D03*
X010228Y003742D03*
X009972Y003742D03*
X009716Y003742D03*
X009460Y003742D03*
X009204Y003742D03*
X008948Y003742D03*
X008693Y003742D03*
X008437Y003742D03*
D11*
X012813Y003702D03*
X013600Y003702D03*
X014387Y003702D03*
X020313Y003702D03*
X021100Y003702D03*
X021887Y003702D03*
X027813Y003702D03*
X028600Y003702D03*
X029387Y003702D03*
X035313Y003702D03*
X036100Y003702D03*
X036887Y003702D03*
X042813Y003702D03*
X043600Y003702D03*
X044387Y003702D03*
X050313Y003702D03*
X051100Y003702D03*
X051887Y003702D03*
X057813Y003702D03*
X058600Y003702D03*
X059387Y003702D03*
X065313Y003702D03*
X066100Y003702D03*
X066887Y003702D03*
X072813Y003702D03*
X073600Y003702D03*
X074387Y003702D03*
X080313Y003702D03*
X081100Y003702D03*
X081887Y003702D03*
X087813Y003702D03*
X088600Y003702D03*
X089387Y003702D03*
X095313Y003702D03*
X096100Y003702D03*
X096887Y003702D03*
X102813Y003702D03*
X103600Y003702D03*
X104387Y003702D03*
X110313Y003702D03*
X111100Y003702D03*
X111887Y003702D03*
X117813Y003702D03*
X118600Y003702D03*
X119387Y003702D03*
X125313Y003702D03*
X126100Y003702D03*
X126887Y003702D03*
X132813Y003702D03*
X133600Y003702D03*
X134387Y003702D03*
X140313Y003702D03*
X141100Y003702D03*
X141887Y003702D03*
X147813Y003702D03*
X148600Y003702D03*
X149387Y003702D03*
X155313Y003702D03*
X156100Y003702D03*
X156887Y003702D03*
X156887Y001498D03*
X156100Y001498D03*
X155313Y001498D03*
X149387Y001498D03*
X148600Y001498D03*
X147813Y001498D03*
X141887Y001498D03*
X141100Y001498D03*
X140313Y001498D03*
X134387Y001498D03*
X133600Y001498D03*
X132813Y001498D03*
X126887Y001498D03*
X126100Y001498D03*
X125313Y001498D03*
X119387Y001498D03*
X118600Y001498D03*
X117813Y001498D03*
X111887Y001498D03*
X111100Y001498D03*
X110313Y001498D03*
X104387Y001498D03*
X103600Y001498D03*
X102813Y001498D03*
X096887Y001498D03*
X096100Y001498D03*
X095313Y001498D03*
X089387Y001498D03*
X088600Y001498D03*
X087813Y001498D03*
X081887Y001498D03*
X081100Y001498D03*
X080313Y001498D03*
X074387Y001498D03*
X073600Y001498D03*
X072813Y001498D03*
X066887Y001498D03*
X066100Y001498D03*
X065313Y001498D03*
X059387Y001498D03*
X058600Y001498D03*
X057813Y001498D03*
X051887Y001498D03*
X051100Y001498D03*
X050313Y001498D03*
X044387Y001498D03*
X043600Y001498D03*
X042813Y001498D03*
X036887Y001498D03*
X036100Y001498D03*
X035313Y001498D03*
X029387Y001498D03*
X028600Y001498D03*
X027813Y001498D03*
X021887Y001498D03*
X021100Y001498D03*
X020313Y001498D03*
X014387Y001498D03*
X013600Y001498D03*
X012813Y001498D03*
D12*
X015800Y003796D03*
X016800Y003796D03*
X017800Y003796D03*
X023300Y003796D03*
X024300Y003796D03*
X025300Y003796D03*
X030800Y003796D03*
X031800Y003796D03*
X032800Y003796D03*
X038300Y003796D03*
X038800Y003796D03*
X039300Y003796D03*
X040300Y003796D03*
X040800Y003796D03*
X041300Y003796D03*
X041300Y004150D03*
X040800Y004150D03*
X040300Y004150D03*
X039300Y004150D03*
X038800Y004150D03*
X038300Y004150D03*
X032800Y004150D03*
X031800Y004150D03*
X030800Y004150D03*
X025300Y004150D03*
X024300Y004150D03*
X023300Y004150D03*
X017800Y004150D03*
X016800Y004150D03*
X015800Y004150D03*
X006850Y004100D03*
X005900Y004100D03*
X005900Y003746D03*
X006850Y003746D03*
X053300Y003796D03*
X054300Y003796D03*
X055300Y003796D03*
X060800Y003796D03*
X061800Y003796D03*
X062800Y003796D03*
X068300Y003796D03*
X069300Y003796D03*
X070300Y003796D03*
X075800Y003796D03*
X076300Y003796D03*
X076800Y003796D03*
X077800Y003796D03*
X078300Y003796D03*
X078800Y003796D03*
X078800Y004150D03*
X078300Y004150D03*
X077800Y004150D03*
X076800Y004150D03*
X076300Y004150D03*
X075800Y004150D03*
X070300Y004150D03*
X069300Y004150D03*
X068300Y004150D03*
X062800Y004150D03*
X061800Y004150D03*
X060800Y004150D03*
X055300Y004150D03*
X054300Y004150D03*
X053300Y004150D03*
X090800Y004150D03*
X091800Y004150D03*
X092800Y004150D03*
X098300Y004150D03*
X099300Y004150D03*
X100300Y004150D03*
X105800Y004150D03*
X106800Y004150D03*
X107800Y004150D03*
X113300Y004150D03*
X113800Y004150D03*
X114300Y004150D03*
X115300Y004150D03*
X115800Y004150D03*
X116300Y004150D03*
X116300Y003796D03*
X115800Y003796D03*
X115300Y003796D03*
X114300Y003796D03*
X113800Y003796D03*
X113300Y003796D03*
X107800Y003796D03*
X106800Y003796D03*
X105800Y003796D03*
X100300Y003796D03*
X099300Y003796D03*
X098300Y003796D03*
X092800Y003796D03*
X091800Y003796D03*
X090800Y003796D03*
X128300Y003796D03*
X129300Y003796D03*
X130300Y003796D03*
X135800Y003796D03*
X136800Y003796D03*
X137800Y003796D03*
X143300Y003796D03*
X144300Y003796D03*
X145300Y003796D03*
X150800Y003796D03*
X151800Y003796D03*
X152800Y003796D03*
X158300Y003796D03*
X159300Y003796D03*
X160300Y003796D03*
X160300Y004150D03*
X159300Y004150D03*
X158300Y004150D03*
X152800Y004150D03*
X151800Y004150D03*
X150800Y004150D03*
X145300Y004150D03*
X144300Y004150D03*
X143300Y004150D03*
X137800Y004150D03*
X136800Y004150D03*
X135800Y004150D03*
X130300Y004150D03*
X129300Y004150D03*
X128300Y004150D03*
D13*
X003600Y004100D03*
X003600Y003100D03*
X003600Y002100D03*
X003600Y001100D03*
D14*
X009350Y000950D02*
X009550Y001150D01*
X009650Y001150D01*
X009700Y001200D01*
X009700Y001300D01*
X009716Y001316D01*
X009716Y001458D01*
X009460Y001458D02*
X009204Y001458D01*
X008948Y001458D01*
X008693Y001458D01*
X008437Y001458D01*
X008437Y000587D01*
X008300Y000450D01*
X009700Y000950D02*
X009972Y001222D01*
X009972Y001458D01*
X010228Y001458D02*
X010228Y001128D01*
X010050Y000950D01*
X010400Y000950D02*
X010484Y001034D01*
X010484Y001458D01*
X010740Y001458D02*
X010740Y000960D01*
X010750Y000950D01*
X010996Y001054D02*
X011100Y000950D01*
X011252Y001148D02*
X011450Y000950D01*
X011507Y001243D02*
X011800Y000950D01*
X010996Y001054D02*
X010996Y001458D01*
X011252Y001458D02*
X011252Y001148D01*
X011507Y001243D02*
X011507Y001458D01*
X011750Y001472D02*
X011763Y001458D01*
X011750Y001472D02*
X011750Y001950D01*
X011484Y002216D01*
X009716Y002216D01*
X009450Y001950D01*
X009460Y001940D01*
X009460Y001458D01*
X012800Y001510D02*
X012813Y001498D01*
X012800Y001510D02*
X012800Y002350D01*
X013600Y002350D02*
X013600Y001498D01*
X014387Y001498D02*
X014387Y002337D01*
X014400Y002350D01*
X009716Y002216D02*
X009716Y003742D01*
X009460Y003742D02*
X009204Y003742D01*
X009200Y003746D01*
X009200Y004000D01*
X009100Y004100D01*
X008550Y004100D01*
X008437Y003987D01*
X008437Y003742D01*
X007208Y003742D01*
X006850Y004100D01*
X005900Y004100D01*
X005900Y004700D01*
X005950Y004750D01*
X015800Y004600D02*
X015950Y004750D01*
X016800Y004750D02*
X016800Y004150D01*
X017800Y004150D02*
X017800Y004700D01*
X017850Y004750D01*
X015800Y004600D02*
X015800Y004150D01*
X012050Y004250D02*
X011763Y003963D01*
X011763Y003742D01*
X011507Y003742D02*
X011507Y004057D01*
X011700Y004250D01*
X011350Y004250D02*
X011252Y004152D01*
X011252Y003742D01*
X010996Y003742D02*
X010996Y004246D01*
X011000Y004250D01*
X010740Y004160D02*
X010650Y004250D01*
X010740Y004160D02*
X010740Y003742D01*
X010484Y003742D02*
X010484Y004066D01*
X010300Y004250D01*
X010228Y003972D02*
X009950Y004250D01*
X010228Y003972D02*
X010228Y003742D01*
X008948Y003742D02*
X008948Y002650D01*
X008950Y002600D01*
X008950Y002300D01*
X008800Y002150D01*
X006100Y002150D01*
X005900Y002350D01*
X004350Y002850D02*
X003600Y002100D01*
X011050Y002600D02*
X044900Y002600D01*
X046450Y002600D02*
X046450Y003740D01*
X046448Y003742D01*
X046200Y003734D02*
X046193Y003742D01*
X046200Y003734D02*
X046200Y002950D01*
X045400Y002950D02*
X044800Y002950D01*
X044650Y002800D01*
X011400Y002800D01*
X011350Y002850D01*
X010600Y002850D01*
X008700Y002850D02*
X007546Y002850D01*
X006850Y003746D01*
X006850Y003200D01*
X006500Y002850D01*
X004350Y002850D01*
X008693Y003050D02*
X008700Y002850D01*
X012813Y002987D02*
X012950Y002900D01*
X016854Y002900D01*
X017800Y003796D01*
X016800Y003796D02*
X015954Y003000D01*
X013750Y003000D01*
X013600Y003100D01*
X013600Y003702D01*
X014387Y003702D02*
X015707Y003702D01*
X015800Y003796D01*
X012813Y003702D02*
X012813Y002987D01*
X008693Y003050D02*
X008693Y003742D01*
X005900Y003746D02*
X005900Y003250D01*
X004246Y003746D02*
X003600Y003100D01*
X020313Y003037D02*
X020500Y002900D01*
X024354Y002900D01*
X025300Y003796D01*
X024300Y003796D02*
X023454Y003000D01*
X021250Y003000D01*
X021100Y003100D01*
X021100Y003702D01*
X020313Y003702D02*
X020313Y003037D01*
X027813Y003037D02*
X028000Y002900D01*
X031854Y002900D01*
X032800Y003796D01*
X031800Y003796D02*
X030904Y003000D01*
X028650Y003000D01*
X028600Y003050D01*
X028600Y003702D01*
X027813Y003702D02*
X027813Y003037D01*
X035313Y003087D02*
X035500Y002900D01*
X038404Y002900D01*
X039300Y003796D01*
X038800Y003796D02*
X038004Y003000D01*
X036200Y003000D01*
X036100Y003100D01*
X036100Y003702D01*
X036887Y003702D02*
X038207Y003702D01*
X038300Y003796D01*
X040300Y003796D02*
X040300Y003600D01*
X041000Y002900D01*
X044300Y002900D01*
X044400Y003000D01*
X044400Y003690D01*
X044387Y003702D01*
X043600Y003702D02*
X043600Y003050D01*
X043550Y003000D01*
X041300Y003000D01*
X040800Y003500D01*
X040800Y003796D01*
X041300Y003796D02*
X042719Y003796D01*
X042813Y003702D01*
X045937Y003742D02*
X045937Y001458D01*
X046193Y001458D02*
X046193Y000543D01*
X046100Y000450D01*
X046850Y000950D02*
X047050Y001150D01*
X047100Y001150D01*
X047216Y001266D01*
X047216Y001458D01*
X046960Y001458D02*
X046704Y001458D01*
X046448Y001458D01*
X046193Y001458D01*
X046950Y001469D02*
X046960Y001458D01*
X046950Y001469D02*
X046950Y002150D01*
X047216Y002416D01*
X049034Y002416D01*
X049250Y002200D01*
X049250Y001472D01*
X049263Y001458D01*
X049007Y001458D02*
X049007Y001243D01*
X049300Y000950D01*
X048950Y000950D02*
X048752Y001148D01*
X048752Y001458D01*
X048496Y001458D02*
X048496Y001054D01*
X048600Y000950D01*
X048250Y000950D02*
X048240Y000960D01*
X048240Y001458D01*
X047984Y001458D02*
X047984Y001034D01*
X047900Y000950D01*
X047728Y001128D02*
X047550Y000950D01*
X047472Y001222D02*
X047200Y000950D01*
X047728Y001128D02*
X047728Y001458D01*
X047472Y001458D02*
X047472Y001222D01*
X050313Y001498D02*
X050313Y002337D01*
X050300Y002350D01*
X051100Y002350D02*
X051100Y001498D01*
X051887Y001498D02*
X051887Y002337D01*
X051900Y002350D01*
X047216Y002416D02*
X047216Y003742D01*
X046960Y003742D02*
X046704Y003742D01*
X046700Y003746D01*
X046700Y004100D01*
X046650Y004150D01*
X046000Y004150D01*
X045937Y004087D01*
X045937Y004713D01*
X045900Y004750D01*
X041300Y004750D02*
X041300Y004150D01*
X040800Y004150D02*
X040800Y004750D01*
X040300Y004700D02*
X040250Y004750D01*
X040300Y004700D02*
X040300Y004150D01*
X039300Y004150D02*
X039300Y004750D01*
X038900Y004750D02*
X038800Y004650D01*
X038800Y004150D01*
X038300Y004150D02*
X038300Y004600D01*
X038150Y004750D01*
X032950Y004750D02*
X032800Y004600D01*
X032800Y004150D01*
X031800Y004150D02*
X031800Y004700D01*
X031850Y004750D01*
X031000Y004750D02*
X030800Y004550D01*
X030800Y004150D01*
X025300Y004150D02*
X025300Y004700D01*
X025250Y004750D01*
X024350Y004750D02*
X024300Y004700D01*
X024300Y004150D01*
X023300Y004150D02*
X023300Y004650D01*
X023400Y004750D01*
X045937Y004087D02*
X045937Y003742D01*
X047728Y003742D02*
X047728Y003972D01*
X047450Y004250D01*
X047800Y004250D02*
X047984Y004066D01*
X047984Y003742D01*
X048240Y003742D02*
X048240Y004160D01*
X048150Y004250D01*
X048496Y004246D02*
X048500Y004250D01*
X048496Y004246D02*
X048496Y003742D01*
X048752Y003742D02*
X048752Y004152D01*
X048850Y004250D01*
X049007Y004057D02*
X049200Y004250D01*
X049263Y003963D02*
X049550Y004250D01*
X053300Y004150D02*
X053300Y004550D01*
X053500Y004750D01*
X054300Y004750D02*
X054300Y004150D01*
X055300Y004150D02*
X055300Y004750D01*
X060800Y004750D02*
X060800Y004150D01*
X061800Y004150D02*
X061800Y004700D01*
X061850Y004750D01*
X062800Y004700D02*
X062850Y004750D01*
X062800Y004700D02*
X062800Y004150D01*
X068300Y004150D02*
X068300Y004750D01*
X069300Y004600D02*
X069450Y004750D01*
X070300Y004750D02*
X070300Y004150D01*
X069300Y004150D02*
X069300Y004600D01*
X075800Y004600D02*
X075950Y004750D01*
X076300Y004700D02*
X076350Y004750D01*
X076300Y004700D02*
X076300Y004150D01*
X075800Y004150D02*
X075800Y004600D01*
X076800Y004700D02*
X076850Y004750D01*
X076800Y004700D02*
X076800Y004150D01*
X077800Y004150D02*
X077800Y004700D01*
X077850Y004750D01*
X078300Y004700D02*
X078350Y004750D01*
X078300Y004700D02*
X078300Y004150D01*
X078800Y004150D02*
X078800Y004650D01*
X078900Y004750D01*
X083400Y004750D02*
X083437Y004713D01*
X083437Y004037D01*
X083500Y004100D01*
X084150Y004100D01*
X084204Y004046D01*
X084204Y003742D01*
X084200Y003746D01*
X084456Y003746D01*
X084460Y003742D01*
X084716Y003742D02*
X084716Y002366D01*
X086534Y002366D01*
X086750Y002150D01*
X086750Y001472D01*
X086763Y001458D01*
X086507Y001458D02*
X086507Y001243D01*
X086800Y000950D01*
X086450Y000950D02*
X086252Y001148D01*
X086252Y001458D01*
X085996Y001458D02*
X085996Y001054D01*
X086100Y000950D01*
X085750Y000950D02*
X085740Y000960D01*
X085740Y001458D01*
X085484Y001458D02*
X085484Y001034D01*
X085400Y000950D01*
X085228Y001128D02*
X085050Y000950D01*
X084972Y001222D02*
X084700Y000950D01*
X084600Y001150D02*
X084400Y000950D01*
X084350Y000950D01*
X085228Y001128D02*
X085228Y001458D01*
X084972Y001458D02*
X084972Y001222D01*
X084700Y001200D02*
X084650Y001150D01*
X084600Y001150D01*
X084700Y001200D02*
X084700Y001442D01*
X084716Y001458D01*
X084460Y001458D02*
X084450Y001469D01*
X084450Y002100D01*
X084716Y002366D01*
X087800Y002350D02*
X087813Y002337D01*
X087813Y001498D01*
X088600Y001498D02*
X088600Y002350D01*
X089387Y002337D02*
X089400Y002350D01*
X089387Y002337D02*
X089387Y001498D01*
X084460Y001458D02*
X084204Y001458D01*
X083948Y001458D01*
X083948Y000452D01*
X083950Y000450D01*
X083693Y001458D02*
X083437Y001458D01*
X083437Y003742D01*
X083437Y004037D01*
X084950Y004250D02*
X085228Y003972D01*
X085228Y003742D01*
X085484Y003742D02*
X085484Y004066D01*
X085300Y004250D01*
X085650Y004250D02*
X085740Y004160D01*
X085740Y003742D01*
X085996Y003742D02*
X085996Y004246D01*
X086000Y004250D01*
X086252Y004152D02*
X086350Y004250D01*
X086507Y004057D02*
X086700Y004250D01*
X086763Y003963D02*
X087050Y004250D01*
X086252Y004152D02*
X086252Y003742D01*
X086507Y003742D02*
X086507Y004057D01*
X086763Y003963D02*
X086763Y003742D01*
X087800Y003690D02*
X087813Y003702D01*
X087800Y003690D02*
X087800Y003050D01*
X087950Y002900D01*
X092600Y002900D01*
X092800Y003100D01*
X092800Y003796D01*
X091800Y003796D02*
X091800Y003150D01*
X091650Y003000D01*
X088650Y003000D01*
X088600Y003050D01*
X088600Y003702D01*
X089387Y003702D02*
X089481Y003796D01*
X090800Y003796D01*
X095300Y003690D02*
X095313Y003702D01*
X095300Y003690D02*
X095300Y003000D01*
X095400Y002900D01*
X100250Y002900D01*
X100300Y002950D01*
X100300Y003796D01*
X099300Y003796D02*
X099300Y003100D01*
X099200Y003000D01*
X096200Y003000D01*
X096100Y003100D01*
X096100Y003702D01*
X096887Y003702D02*
X096981Y003796D01*
X098300Y003796D01*
X102800Y003690D02*
X102813Y003702D01*
X102800Y003690D02*
X102800Y003000D01*
X102900Y002900D01*
X107650Y002900D01*
X107800Y003050D01*
X107800Y003796D01*
X106800Y003796D02*
X106800Y003200D01*
X106600Y003000D01*
X103650Y003000D01*
X103600Y003050D01*
X103600Y003702D01*
X104387Y003702D02*
X104481Y003796D01*
X105800Y003796D01*
X110300Y003690D02*
X110313Y003702D01*
X110300Y003690D02*
X110300Y003000D01*
X110400Y002900D01*
X114200Y002900D01*
X114300Y003000D01*
X114300Y003796D01*
X113800Y003796D02*
X113800Y003150D01*
X113650Y003000D01*
X111150Y003000D01*
X111100Y003050D01*
X111100Y003702D01*
X111887Y003702D02*
X111981Y003796D01*
X113300Y003796D01*
X115300Y003796D02*
X115300Y003150D01*
X115550Y002900D01*
X119250Y002900D01*
X119400Y003050D01*
X119400Y003690D01*
X119387Y003702D01*
X118600Y003702D02*
X118600Y003100D01*
X118500Y003000D01*
X116000Y003000D01*
X115800Y003200D01*
X115800Y003796D01*
X116300Y003796D02*
X117719Y003796D01*
X117813Y003702D01*
X120937Y003742D02*
X120937Y001458D01*
X121193Y001458D01*
X121448Y001458D01*
X121704Y001458D02*
X121704Y001204D01*
X121550Y001050D01*
X121550Y000450D01*
X121850Y000950D02*
X122050Y001150D01*
X122100Y001150D01*
X122216Y001266D01*
X122216Y001458D01*
X121960Y001458D02*
X121950Y001469D01*
X121950Y002250D01*
X122216Y002516D01*
X123984Y002516D01*
X124250Y002250D01*
X124250Y001472D01*
X124263Y001458D01*
X124007Y001458D02*
X124007Y001243D01*
X124300Y000950D01*
X123950Y000950D02*
X123752Y001148D01*
X123752Y001458D01*
X123496Y001458D02*
X123496Y001054D01*
X123600Y000950D01*
X123250Y000950D02*
X123240Y000960D01*
X123240Y001458D01*
X122984Y001458D02*
X122984Y001034D01*
X122900Y000950D01*
X122728Y001128D02*
X122550Y000950D01*
X122472Y001222D02*
X122200Y000950D01*
X122728Y001128D02*
X122728Y001458D01*
X122472Y001458D02*
X122472Y001222D01*
X121960Y001458D02*
X121704Y001458D01*
X119387Y001498D02*
X119387Y002337D01*
X119400Y002350D01*
X118600Y002350D02*
X118600Y001498D01*
X117813Y001498D02*
X117813Y002337D01*
X117800Y002350D01*
X122216Y002516D02*
X122216Y003742D01*
X121960Y003742D02*
X121704Y003742D01*
X121704Y004046D01*
X121650Y004100D01*
X121000Y004100D01*
X120937Y004037D01*
X120937Y004713D01*
X120900Y004750D01*
X116350Y004750D02*
X116300Y004700D01*
X116300Y004150D01*
X115800Y004150D02*
X115800Y004700D01*
X115850Y004750D01*
X115300Y004750D02*
X115300Y004150D01*
X114300Y004150D02*
X114300Y004750D01*
X113900Y004750D02*
X113800Y004650D01*
X113800Y004150D01*
X113300Y004150D02*
X113300Y004700D01*
X113350Y004750D01*
X107850Y004750D02*
X107800Y004700D01*
X107800Y004150D01*
X106800Y004150D02*
X106800Y004700D01*
X106850Y004750D01*
X105950Y004750D02*
X105800Y004600D01*
X105800Y004150D01*
X100300Y004150D02*
X100300Y004750D01*
X099450Y004750D02*
X099300Y004600D01*
X099300Y004150D01*
X098300Y004150D02*
X098300Y004700D01*
X098350Y004750D01*
X092850Y004750D02*
X092800Y004700D01*
X092800Y004150D01*
X091800Y004150D02*
X091800Y004650D01*
X091900Y004750D01*
X090900Y004750D02*
X090800Y004650D01*
X090800Y004150D01*
X080313Y003702D02*
X080219Y003796D01*
X078800Y003796D01*
X078300Y003796D02*
X078300Y003050D01*
X078350Y003000D01*
X081050Y003000D01*
X081100Y003050D01*
X081100Y003702D01*
X081887Y003702D02*
X081900Y003690D01*
X081900Y003000D01*
X081800Y002900D01*
X077950Y002900D01*
X077800Y003050D01*
X077800Y003796D01*
X076800Y003796D02*
X076800Y002950D01*
X076750Y002900D01*
X072900Y002900D01*
X072800Y003000D01*
X072800Y003690D01*
X072813Y003702D01*
X073600Y003702D02*
X073600Y003050D01*
X073650Y003000D01*
X076200Y003000D01*
X076300Y003100D01*
X076300Y003796D01*
X075800Y003796D02*
X074481Y003796D01*
X074387Y003702D01*
X070300Y003796D02*
X070300Y003050D01*
X070150Y002900D01*
X065400Y002900D01*
X065300Y003000D01*
X065300Y003690D01*
X065313Y003702D01*
X066100Y003702D02*
X066100Y003050D01*
X066150Y003000D01*
X069150Y003000D01*
X069300Y003150D01*
X069300Y003796D01*
X068300Y003796D02*
X066981Y003796D01*
X066887Y003702D01*
X062800Y003796D02*
X062800Y003000D01*
X062700Y002900D01*
X057900Y002900D01*
X057800Y003000D01*
X057800Y003690D01*
X057813Y003702D01*
X058600Y003702D02*
X058600Y003050D01*
X058650Y003000D01*
X061650Y003000D01*
X061800Y003150D01*
X061800Y003796D01*
X060800Y003796D02*
X059481Y003796D01*
X059387Y003702D01*
X055300Y003796D02*
X055300Y003150D01*
X055050Y002900D01*
X050400Y002900D01*
X050300Y003000D01*
X050300Y003690D01*
X050313Y003702D01*
X051100Y003702D02*
X051100Y003050D01*
X051150Y003000D01*
X053850Y003000D01*
X054300Y003450D01*
X054300Y003796D01*
X053300Y003796D02*
X051981Y003796D01*
X051887Y003702D01*
X049263Y003742D02*
X049263Y003963D01*
X049007Y004057D02*
X049007Y003742D01*
X049000Y003742D01*
X035313Y003702D02*
X035313Y003087D01*
X047750Y003150D02*
X048100Y003150D01*
X048450Y002800D01*
X082050Y002800D01*
X082250Y003000D01*
X082900Y003000D01*
X083700Y003000D02*
X083700Y003734D01*
X083693Y003742D01*
X083948Y003742D02*
X083950Y003740D01*
X083950Y002600D01*
X082400Y002600D02*
X048200Y002600D01*
X048050Y002750D01*
X047750Y002750D01*
X044400Y002350D02*
X044387Y002337D01*
X044387Y001498D01*
X043600Y001498D02*
X043600Y002350D01*
X042800Y002350D02*
X042800Y001900D01*
X042813Y001887D01*
X042813Y001498D01*
X036887Y001498D02*
X036887Y002337D01*
X036900Y002350D01*
X036100Y002350D02*
X036100Y001498D01*
X035313Y001498D02*
X035313Y002337D01*
X035300Y002350D01*
X029400Y002350D02*
X029387Y002337D01*
X029387Y001498D01*
X028600Y001498D02*
X028600Y002350D01*
X027813Y002337D02*
X027800Y002350D01*
X027813Y002337D02*
X027813Y001498D01*
X021887Y001498D02*
X021887Y002337D01*
X021900Y002350D01*
X021100Y002350D02*
X021100Y001498D01*
X020313Y001498D02*
X020313Y002337D01*
X020300Y002350D01*
X057800Y002350D02*
X057800Y001550D01*
X057813Y001537D01*
X057813Y001498D01*
X058600Y001498D02*
X058600Y002350D01*
X059387Y002337D02*
X059400Y002350D01*
X059387Y002337D02*
X059387Y001498D01*
X065313Y001498D02*
X065313Y002337D01*
X065300Y002350D01*
X066100Y002350D02*
X066100Y001498D01*
X066887Y001498D02*
X066887Y002337D01*
X066900Y002350D01*
X072800Y002350D02*
X072813Y002337D01*
X072813Y001498D01*
X073600Y001498D02*
X073600Y002350D01*
X074387Y002337D02*
X074400Y002350D01*
X074387Y002337D02*
X074387Y001498D01*
X080313Y001498D02*
X080313Y002337D01*
X080300Y002350D01*
X081100Y002350D02*
X081100Y001498D01*
X081887Y001498D02*
X081887Y002337D01*
X081900Y002350D01*
X085850Y002600D02*
X119900Y002600D01*
X121450Y002600D02*
X121450Y003740D01*
X121448Y003742D01*
X121193Y003742D02*
X121193Y003107D01*
X121200Y003100D01*
X121200Y003000D01*
X120350Y003000D02*
X119850Y003000D01*
X119650Y002800D01*
X086750Y002800D01*
X086550Y003000D01*
X085350Y003000D01*
X095300Y002350D02*
X095313Y002337D01*
X095313Y001498D01*
X096100Y001498D02*
X096100Y002350D01*
X096887Y002337D02*
X096900Y002350D01*
X096887Y002337D02*
X096887Y001498D01*
X102813Y001498D02*
X102813Y002337D01*
X102800Y002350D01*
X103600Y002350D02*
X103600Y001498D01*
X104387Y001498D02*
X104387Y002337D01*
X104400Y002350D01*
X110300Y002350D02*
X110313Y002337D01*
X110313Y001498D01*
X111100Y001498D02*
X111100Y002350D01*
X111887Y002337D02*
X111900Y002350D01*
X111887Y002337D02*
X111887Y001498D01*
X125313Y001498D02*
X125313Y002337D01*
X125300Y002350D01*
X126100Y002350D02*
X126100Y001498D01*
X126887Y001498D02*
X126887Y002337D01*
X126900Y002350D01*
X132800Y002350D02*
X132813Y002337D01*
X132813Y001498D01*
X133600Y001498D02*
X133600Y002350D01*
X134387Y002337D02*
X134400Y002350D01*
X134387Y002337D02*
X134387Y001498D01*
X140313Y001498D02*
X140313Y002337D01*
X140300Y002350D01*
X141100Y002350D02*
X141100Y001498D01*
X141887Y001498D02*
X141900Y001510D01*
X141900Y002350D01*
X147800Y002350D02*
X147800Y001510D01*
X147813Y001498D01*
X148600Y001498D02*
X148600Y002350D01*
X149400Y002350D02*
X149400Y001510D01*
X149387Y001498D01*
X155300Y001510D02*
X155313Y001498D01*
X155300Y001510D02*
X155300Y002350D01*
X156100Y002350D02*
X156100Y001498D01*
X156887Y001498D02*
X156900Y001510D01*
X156900Y002350D01*
X155400Y002900D02*
X155300Y003000D01*
X155300Y003690D01*
X155313Y003702D01*
X156100Y003702D02*
X156100Y003050D01*
X156150Y003000D01*
X159100Y003000D01*
X159300Y003200D01*
X159300Y003796D01*
X158300Y003796D02*
X156981Y003796D01*
X156887Y003702D01*
X160300Y003796D02*
X160300Y003100D01*
X160100Y002900D01*
X155400Y002900D01*
X152800Y003050D02*
X152650Y002900D01*
X147900Y002900D01*
X147800Y003000D01*
X147800Y003690D01*
X147813Y003702D01*
X148600Y003702D02*
X148600Y003050D01*
X148650Y003000D01*
X151750Y003000D01*
X151800Y003050D01*
X151800Y003796D01*
X150800Y003796D02*
X149481Y003796D01*
X149387Y003702D01*
X152800Y003796D02*
X152800Y003050D01*
X145300Y003000D02*
X145200Y002900D01*
X140400Y002900D01*
X140300Y003000D01*
X140300Y003690D01*
X140313Y003702D01*
X141100Y003702D02*
X141100Y003050D01*
X141150Y003000D01*
X144150Y003000D01*
X144300Y003150D01*
X144300Y003796D01*
X143300Y003796D02*
X141981Y003796D01*
X141887Y003702D01*
X145300Y003796D02*
X145300Y003000D01*
X137800Y003000D02*
X137700Y002900D01*
X132900Y002900D01*
X132800Y003000D01*
X132800Y003690D01*
X132813Y003702D01*
X133600Y003702D02*
X133600Y003050D01*
X133650Y003000D01*
X136650Y003000D01*
X136800Y003150D01*
X136800Y003796D01*
X135800Y003796D02*
X134481Y003796D01*
X134387Y003702D01*
X137800Y003796D02*
X137800Y003000D01*
X130300Y002950D02*
X130250Y002900D01*
X125400Y002900D01*
X125300Y003000D01*
X125300Y003690D01*
X125313Y003702D01*
X126100Y003702D02*
X126100Y003050D01*
X126150Y003000D01*
X129200Y003000D01*
X129300Y003100D01*
X129300Y003796D01*
X128300Y003796D02*
X126981Y003796D01*
X126887Y003702D01*
X124263Y003742D02*
X124263Y003963D01*
X124550Y004250D01*
X124200Y004250D02*
X124007Y004057D01*
X124007Y003742D01*
X123752Y003742D02*
X123752Y004152D01*
X123850Y004250D01*
X123500Y004250D02*
X123496Y004246D01*
X123496Y003742D01*
X123240Y003742D02*
X123240Y004160D01*
X123150Y004250D01*
X122984Y004066D02*
X122800Y004250D01*
X122728Y003972D02*
X122450Y004250D01*
X122984Y004066D02*
X122984Y003742D01*
X122728Y003742D02*
X122728Y003972D01*
X120937Y004037D02*
X120937Y003742D01*
X130300Y003796D02*
X130300Y002950D01*
X130300Y004150D02*
X130300Y004650D01*
X130200Y004750D01*
X129350Y004750D02*
X129300Y004700D01*
X129300Y004150D01*
X128300Y004150D02*
X128300Y004600D01*
X128450Y004750D01*
X135800Y004600D02*
X135950Y004750D01*
X136800Y004600D02*
X136950Y004750D01*
X137750Y004750D02*
X137800Y004700D01*
X137800Y004150D01*
X136800Y004150D02*
X136800Y004600D01*
X135800Y004600D02*
X135800Y004150D01*
X143300Y004150D02*
X143300Y004650D01*
X143200Y004750D01*
X144300Y004550D02*
X144500Y004750D01*
X145150Y004750D02*
X145300Y004600D01*
X145300Y004150D01*
X144300Y004150D02*
X144300Y004550D01*
X150800Y004650D02*
X150900Y004750D01*
X151800Y004650D02*
X151900Y004750D01*
X152800Y004750D02*
X152800Y004150D01*
X151800Y004150D02*
X151800Y004650D01*
X150800Y004650D02*
X150800Y004150D01*
X158300Y004150D02*
X158300Y004600D01*
X158450Y004750D01*
X159300Y004500D02*
X159550Y004750D01*
X160300Y004700D02*
X160350Y004750D01*
X160300Y004700D02*
X160300Y004150D01*
X159300Y004150D02*
X159300Y004500D01*
X030800Y003796D02*
X030707Y003702D01*
X029387Y003702D01*
X023300Y003796D02*
X023207Y003702D01*
X021887Y003702D01*
X005900Y003746D02*
X004246Y003746D01*
D15*
X007250Y001100D02*
X007900Y000450D01*
X008300Y000450D01*
X046100Y000450D01*
X083950Y000450D01*
X121550Y000450D01*
X160250Y000450D01*
X160350Y004750D02*
X159550Y004750D01*
X158450Y004750D01*
X152800Y004750D01*
X151900Y004750D01*
X150900Y004750D01*
X145150Y004750D01*
X144500Y004750D01*
X143200Y004750D01*
X137750Y004750D01*
X136950Y004750D01*
X135950Y004750D01*
X130200Y004750D01*
X129350Y004750D01*
X128450Y004750D01*
X120900Y004750D01*
X116350Y004750D01*
X115850Y004750D01*
X115300Y004750D01*
X114300Y004750D01*
X113900Y004750D01*
X113350Y004750D01*
X107850Y004750D01*
X106850Y004750D01*
X105950Y004750D01*
X100300Y004750D01*
X099450Y004750D01*
X098350Y004750D01*
X092850Y004750D01*
X091900Y004750D01*
X090900Y004750D01*
X083400Y004750D01*
X078900Y004750D01*
X078350Y004750D01*
X077850Y004750D01*
X076850Y004750D01*
X076350Y004750D01*
X075950Y004750D01*
X070300Y004750D01*
X069450Y004750D01*
X068300Y004750D01*
X062850Y004750D01*
X061850Y004750D01*
X060800Y004750D01*
X055300Y004750D01*
X054300Y004750D01*
X053500Y004750D01*
X045900Y004750D01*
X041300Y004750D01*
X040800Y004750D01*
X040250Y004750D01*
X039300Y004750D01*
X038900Y004750D01*
X038150Y004750D01*
X032950Y004750D01*
X031850Y004750D01*
X031000Y004750D01*
X025250Y004750D01*
X024350Y004750D01*
X023400Y004750D01*
X017850Y004750D01*
X016800Y004750D01*
X015950Y004750D01*
X005950Y004750D01*
X005350Y004750D01*
X004700Y004100D01*
X003600Y004100D01*
X003600Y001100D02*
X007250Y001100D01*
D16*
X009350Y000950D03*
X009700Y000950D03*
X010050Y000950D03*
X010400Y000950D03*
X010750Y000950D03*
X011100Y000950D03*
X011450Y000950D03*
X011800Y000950D03*
X046850Y000950D03*
X047200Y000950D03*
X047550Y000950D03*
X047900Y000950D03*
X048250Y000950D03*
X048600Y000950D03*
X048950Y000950D03*
X049300Y000950D03*
X084350Y000950D03*
X084700Y000950D03*
X085050Y000950D03*
X085400Y000950D03*
X085750Y000950D03*
X086100Y000950D03*
X086450Y000950D03*
X086800Y000950D03*
X121850Y000950D03*
X122200Y000950D03*
X122550Y000950D03*
X122900Y000950D03*
X123250Y000950D03*
X123600Y000950D03*
X123950Y000950D03*
X124300Y000950D03*
X125300Y002350D03*
X126100Y002350D03*
X126900Y002350D03*
X132800Y002350D03*
X133600Y002350D03*
X134400Y002350D03*
X140300Y002350D03*
X141100Y002350D03*
X141900Y002350D03*
X147800Y002350D03*
X148600Y002350D03*
X149400Y002350D03*
X155300Y002350D03*
X156100Y002350D03*
X156900Y002350D03*
X121450Y002600D03*
X119900Y002600D03*
X119400Y002350D03*
X118600Y002350D03*
X117800Y002350D03*
X111900Y002350D03*
X111100Y002350D03*
X110300Y002350D03*
X104400Y002350D03*
X103600Y002350D03*
X102800Y002350D03*
X096900Y002350D03*
X096100Y002350D03*
X095300Y002350D03*
X089400Y002350D03*
X088600Y002350D03*
X087800Y002350D03*
X081900Y002350D03*
X081100Y002350D03*
X080300Y002350D03*
X074400Y002350D03*
X073600Y002350D03*
X072800Y002350D03*
X066900Y002350D03*
X066100Y002350D03*
X065300Y002350D03*
X059400Y002350D03*
X058600Y002350D03*
X057800Y002350D03*
X051900Y002350D03*
X051100Y002350D03*
X050300Y002350D03*
X044400Y002350D03*
X043600Y002350D03*
X042800Y002350D03*
X036900Y002350D03*
X036100Y002350D03*
X035300Y002350D03*
X029400Y002350D03*
X028600Y002350D03*
X027800Y002350D03*
X021900Y002350D03*
X021100Y002350D03*
X020300Y002350D03*
X014400Y002350D03*
X013600Y002350D03*
X012800Y002350D03*
X005900Y002350D03*
X008950Y002600D03*
X011050Y002600D03*
X010600Y002850D03*
X008700Y002850D03*
X005900Y003250D03*
X009950Y004250D03*
X010300Y004250D03*
X010650Y004250D03*
X011000Y004250D03*
X011350Y004250D03*
X011700Y004250D03*
X012050Y004250D03*
X047450Y004250D03*
X047800Y004250D03*
X048150Y004250D03*
X048500Y004250D03*
X048850Y004250D03*
X049200Y004250D03*
X049550Y004250D03*
X047750Y003150D03*
X046200Y002950D03*
X045400Y002950D03*
X047750Y002750D03*
X046450Y002600D03*
X044900Y002600D03*
X082400Y002600D03*
X083950Y002600D03*
X085850Y002600D03*
X085350Y003000D03*
X083700Y003000D03*
X082900Y003000D03*
X120350Y003000D03*
X121200Y003000D03*
X122450Y004250D03*
X122800Y004250D03*
X123150Y004250D03*
X123500Y004250D03*
X123850Y004250D03*
X124200Y004250D03*
X124550Y004250D03*
X087050Y004250D03*
X086700Y004250D03*
X086350Y004250D03*
X086000Y004250D03*
X085650Y004250D03*
X085300Y004250D03*
X084950Y004250D03*
M02*
