G75*
G70*
%OFA0B0*%
%FSLAX24Y24*%
%IPPOS*%
%LPD*%
%AMOC8*
5,1,8,0,0,1.08239X$1,22.5*
%
%ADD10C,0.0630*%
%ADD11C,0.0340*%
D10*
X003600Y001100D03*
X003600Y002100D03*
X003600Y003100D03*
X003600Y004100D03*
D11*
X009350Y000950D03*
X009700Y000950D03*
X010050Y000950D03*
X010400Y000950D03*
X010750Y000950D03*
X011100Y000950D03*
X011450Y000950D03*
X011800Y000950D03*
X046850Y000950D03*
X047200Y000950D03*
X047550Y000950D03*
X047900Y000950D03*
X048250Y000950D03*
X048600Y000950D03*
X048950Y000950D03*
X049300Y000950D03*
X084350Y000950D03*
X084700Y000950D03*
X085050Y000950D03*
X085400Y000950D03*
X085750Y000950D03*
X086100Y000950D03*
X086450Y000950D03*
X086800Y000950D03*
X121850Y000950D03*
X122200Y000950D03*
X122550Y000950D03*
X122900Y000950D03*
X123250Y000950D03*
X123600Y000950D03*
X123950Y000950D03*
X124300Y000950D03*
X125300Y002350D03*
X126100Y002350D03*
X126900Y002350D03*
X132800Y002350D03*
X133600Y002350D03*
X134400Y002350D03*
X140300Y002350D03*
X141100Y002350D03*
X141900Y002350D03*
X147800Y002350D03*
X148600Y002350D03*
X149400Y002350D03*
X155300Y002350D03*
X156100Y002350D03*
X156900Y002350D03*
X121450Y002600D03*
X119900Y002600D03*
X119400Y002350D03*
X118600Y002350D03*
X117800Y002350D03*
X111900Y002350D03*
X111100Y002350D03*
X110300Y002350D03*
X104400Y002350D03*
X103600Y002350D03*
X102800Y002350D03*
X096900Y002350D03*
X096100Y002350D03*
X095300Y002350D03*
X089400Y002350D03*
X088600Y002350D03*
X087800Y002350D03*
X081900Y002350D03*
X081100Y002350D03*
X080300Y002350D03*
X074400Y002350D03*
X073600Y002350D03*
X072800Y002350D03*
X066900Y002350D03*
X066100Y002350D03*
X065300Y002350D03*
X059400Y002350D03*
X058600Y002350D03*
X057800Y002350D03*
X051900Y002350D03*
X051100Y002350D03*
X050300Y002350D03*
X044400Y002350D03*
X043600Y002350D03*
X042800Y002350D03*
X036900Y002350D03*
X036100Y002350D03*
X035300Y002350D03*
X029400Y002350D03*
X028600Y002350D03*
X027800Y002350D03*
X021900Y002350D03*
X021100Y002350D03*
X020300Y002350D03*
X014400Y002350D03*
X013600Y002350D03*
X012800Y002350D03*
X005900Y002350D03*
X008950Y002600D03*
X011050Y002600D03*
X010600Y002850D03*
X008700Y002850D03*
X005900Y003250D03*
X009950Y004250D03*
X010300Y004250D03*
X010650Y004250D03*
X011000Y004250D03*
X011350Y004250D03*
X011700Y004250D03*
X012050Y004250D03*
X047450Y004250D03*
X047800Y004250D03*
X048150Y004250D03*
X048500Y004250D03*
X048850Y004250D03*
X049200Y004250D03*
X049550Y004250D03*
X047750Y003150D03*
X046200Y002950D03*
X045400Y002950D03*
X047750Y002750D03*
X046450Y002600D03*
X044900Y002600D03*
X082400Y002600D03*
X083950Y002600D03*
X085850Y002600D03*
X085350Y003000D03*
X083700Y003000D03*
X082900Y003000D03*
X120350Y003000D03*
X121200Y003000D03*
X122450Y004250D03*
X122800Y004250D03*
X123150Y004250D03*
X123500Y004250D03*
X123850Y004250D03*
X124200Y004250D03*
X124550Y004250D03*
X087050Y004250D03*
X086700Y004250D03*
X086350Y004250D03*
X086000Y004250D03*
X085650Y004250D03*
X085300Y004250D03*
X084950Y004250D03*
M02*
